<?xml version="1.0" encoding="UTF-8"?>
<!-- Generated by jsxcad -->
<!DOCTYPE svg PUBLIC "-//W3C//DTD SVG 1.1 Tiny//EN" "http://www.w3.org/Graphics/SVG/1.1/DTD/svg11-tiny.dtd">
<svg viewBox="-250 -250 500 500" width="500" height="500" xmlns="http://www.w3.org/2000/svg"><path d="M-44.013691212327025,-112.12875264515884L-52.869423704985515,-107.86966095121137L-61.56734097511533,-103.29016830783043zM-44.013691212327025,-112.12875264515884L-61.56734097511533,-103.29016830783043L-78.39854463897285,-93.21796533092031zM-61.56734097511533,-103.29016830783043L-70.08459601117876,-98.40216735581325L-78.39854463897285,-93.21796533092031zM-25.92125584435822,-119.64019407053796L-35.023194455123,-116.0559510751772L-44.013691212327025,-112.12875264515884zM-7.477942882226579,-125.73725764825866L-44.013691212327025,-112.12875264515884L-78.39854463897285,-93.21796533092031zM-7.477942882226579,-125.73725764825866L-25.92125584435822,-119.64019407053796L-44.013691212327025,-112.12875264515884zM-78.39854463897285,-93.21796533092031L-86.48666769100208,-87.75032992940822L-94.32656445910489,-82.01252072560288zM-7.477942882226579,-125.73725764825866L-16.731508766822373,-122.870732802865L-25.92125584435822,-119.64019407053796zM-78.39854463897285,-93.21796533092031L-94.32656445910489,-82.01252072560288L-109.17250245920683,-69.78213275170114zM-94.32656445910489,-82.01252072560288L-101.89593153496887,-76.01834173673419L-109.17250245920683,-69.78213275170114zM11.12262099589583,-130.3387527724663L1.8150478445437408,-128.2297847166809L-7.477942882226579,-125.73725764825866zM29.679629929918836,-133.36988133480773L11.12262099589583,-130.3387527724663L-7.477942882226579,-125.73725764825866zM29.679629929918836,-133.36988133480773L20.419440335285298,-132.0550304331725L11.12262099589583,-130.3387527724663zM-116.1340873846413,-63.318893708532265L-122.75853549357831,-56.64426712786651L-129.0237576344547,-49.77461213773848zM-116.1340873846413,-63.318893708532265L-129.0237576344547,-49.77461213773848L-140.38849130364534,-35.51962533135529zM47.98376026564542,-134.76294722640785L38.87675380626768,-134.27507790517424L29.679629929918836,-133.36988133480773zM-129.0237576344547,-49.77461213773848L-134.9077220884555,-42.7270766568249L-140.38849130364534,-35.51962533135529zM-7.477942882226579,-125.73725764825866L-78.39854463897285,-93.21796533092031L-72.32595996955817,-31.80179652557291zM-78.39854463897285,-93.21796533092031L-109.17250245920683,-69.78213275170114L-72.32595996955817,-31.80179652557291zM-114.90256085158855,-20.302792995398846L-109.17250245920683,-69.78213275170114L-116.1340873846413,-63.318893708532265zM-140.38849130364534,-35.51962533135529L-145.44429324263214,-28.17109934467588L-150.05350828543666,-20.7012722098766zM74.48415573084304,-133.65472201811716L65.81609773564078,-134.45884421932018L56.972976509790385,-134.8263441016273zM-140.38849130364534,-35.51962533135529L-150.05350828543666,-20.7012722098766L-157.84716788832932,-5.481751802253599z" style="fill:rgb(83,212,212)"/><path d="M-54.74751903259475,-0.7891435916125673L-114.90256085158855,-20.302792995398846L-96.289671915287,10.05831828201477z" style="fill:rgb(127,37,217)"/><path d="M-150.05350828543666,-20.7012722098766L-154.19480508298244,-13.130899371459606L-157.84716788832932,-5.481751802253599zM-109.17250245920683,-69.78213275170114L-114.90256085158855,-20.302792995398846L-72.32595996955817,-31.80179652557291zM91.17606149679317,-130.71794362221578L82.94755420506601,-132.4090824687101L74.48415573084304,-133.65472201811716zM-140.38849130364534,-35.51962533135529L-157.84716788832932,-5.481751802253599L-167.1654591827109,25.42938233180706zM56.972976509790385,-134.8263441016273L47.98376026564542,-134.76294722640785L58.22845367985397,-67.06166373830597zM106.80463652226572,-125.98856786928947L91.17606149679317,-130.71794362221578L74.48415573084304,-133.65472201811716zM-122.5836459484379,47.93727421484247L-116.1340873846413,-63.318893708532265L-140.38849130364534,-35.51962533135529z" style="fill:rgb(83,212,212)"/><path d="M-54.74751903259475,-0.7891435916125673L-72.32595996955817,-31.80179652557291L-114.90256085158855,-20.302792995398846z" style="fill:rgb(127,37,217)"/><path d="M-157.84716788832932,-5.481751802253599L-160.99005171452185,2.2233335122494946L-163.60345884861235,9.960431312450309zM74.48415573084304,-133.65472201811716L56.972976509790385,-134.8263441016273L58.22845367985397,-67.06166373830597zM106.80463652226572,-125.98856786928947L99.1388709836718,-128.57836301027035L91.17606149679317,-130.71794362221578zM-157.84716788832932,-5.481751802253599L-163.60345884861235,9.960431312450309L-167.1654591827109,25.42938233180706zM-122.5836459484379,47.93727421484247L-114.90256085158855,-20.302792995398846L-116.1340873846413,-63.318893708532265zM62.30435692865582,1.1207080957223434L29.679629929918836,-133.36988133480773L-7.477942882226579,-125.73725764825866zM-19.53864990219288,-27.714457281822273L-14.080342224710899,-30.809453400505895L-7.477942882226579,-125.73725764825866zM-14.080342224710899,-30.809453400505895L-8.236151356293504,-32.924497281644214L-7.477942882226579,-125.73725764825866zM-24.25728724460566,-23.839113672358828L-19.53864990219288,-27.714457281822273L-7.477942882226579,-125.73725764825866zM106.80463652226572,-125.98856786928947L74.48415573084304,-133.65472201811716L58.22845367985397,-67.06166373830597zM-163.60345884861235,9.960431312450309L-165.6680814870028,17.704500647246256L-167.1654591827109,25.42938233180706zM-7.477942882226579,-125.73725764825866L-72.32595996955817,-31.80179652557291L-77.21675455788548,36.44965650568155zM-7.477942882226579,-125.73725764825866L-8.236151356293504,-32.924497281644214L-2.3842077895046305,-33.91981743927769z" style="fill:rgb(83,212,212)"/><path d="M-96.289671915287,10.05831828201477L-114.90256085158855,-20.302792995398846L-122.5836459484379,47.93727421484247z" style="fill:rgb(247,158,158)"/><path d="M-27.926232456999625,-19.43215478394613L-24.25728724460566,-23.839113672358828L-7.477942882226579,-125.73725764825866zM-7.477942882226579,-125.73725764825866L-2.3842077895046305,-33.91981743927769L3.093596723614098,-33.72383083902059zM62.30435692865582,1.1207080957223434L47.98376026564542,-134.76294722640785L29.679629929918836,-133.36988133480773zM-30.297321404764823,-14.778449190671246L-27.926232456999625,-19.43215478394613L-7.477942882226579,-125.73725764825866zM121.11742941391684,-119.45761621779965L114.14155307868567,-122.94801696466105L106.80463652226572,-125.98856786928947zM-7.477942882226579,-125.73725764825866L3.093596723614098,-33.72383083902059L7.833208348282128,-32.33894408672882zM-122.5836459484379,47.93727421484247L-140.38849130364534,-35.51962533135529L-167.1654591827109,25.42938233180706z" style="fill:rgb(83,212,212)"/><path d="M2.3064996852672364,1.1322521629139055L-19.53864990219288,-27.714457281822273L-2.984648483461973,4.143859999436087z" style="fill:rgb(173,56,222)"/><path d="M7.990610531299331,-0.8921529308065387L-14.080342224710899,-30.809453400505895L2.3064996852672364,1.1322521629139055z" style="fill:rgb(143,42,220)"/><path d="M133.85614520326988,-111.13867780273466L121.11742941391684,-119.45761621779965L106.80463652226572,-125.98856786928947z" style="fill:rgb(83,212,212)"/><path d="M-2.984648483461973,4.143859999436087L-24.25728724460566,-23.839113672358828L-7.53933989077712,7.948144528464434z" style="fill:rgb(200,74,217)"/><path d="M13.699373599475372,-1.7953207378095306L-8.236151356293504,-32.924497281644214L7.990610531299331,-0.8921529308065387z" style="fill:rgb(111,34,212)"/><path d="M-96.289671915287,10.05831828201477L-122.5836459484379,47.93727421484247L-102.53053207944582,78.18853574378358z" style="fill:rgb(247,158,158)"/><path d="M-7.53933989077712,7.948144528464434L-27.926232456999625,-19.43215478394613L-11.057897458934717,12.30058860921366z" style="fill:rgb(222,97,206)"/><path d="M-30.297321404764823,-14.778449190671246L-7.477942882226579,-125.73725764825866L-77.21675455788548,36.44965650568155z" style="fill:rgb(83,212,212)"/><path d="M19.05984175073428,-1.5118020130795178L-2.3842077895046305,-33.91981743927769L13.699373599475372,-1.7953207378095306z" style="fill:rgb(81,32,199)"/><path d="M117.66259397394965,-45.80877447814733L58.22845367985397,-67.06166373830597L72.47471364040253,-34.009337567015834z" style="fill:rgb(127,37,217)"/><path d="M-167.1654591827109,25.42938233180706L-168.07815165213074,33.10778991711644L-168.38993531466917,40.71134563044136z" style="fill:rgb(83,212,212)"/><path d="M-11.057897458934717,12.30058860921366L-30.297321404764823,-14.778449190671246L-13.302064142673812,16.91955818417692z" style="fill:rgb(238,121,190)"/><path d="M23.715639905624045,-0.05013478710618775L3.093596723614098,-33.72383083902059L19.05984175073428,-1.5118020130795178z" style="fill:rgb(54,37,180)"/><path d="M133.85614520326988,-111.13867780273466L127.69980427548543,-115.51978780182094L121.11742941391684,-119.45761621779965z" style="fill:rgb(83,212,212)"/><path d="M-13.302064142673812,16.91955818417692L-31.20055714606118,-10.18360566608164L-14.11073734731683,21.50159023915704z" style="fill:rgb(246,146,169)"/><path d="M2.3064996852672364,1.1322521629139055L-14.080342224710899,-30.809453400505895L-19.53864990219288,-27.714457281822273z" style="fill:rgb(173,56,222)"/><path d="M7.990610531299331,-0.8921529308065387L-8.236151356293504,-32.924497281644214L-14.080342224710899,-30.809453400505895z" style="fill:rgb(143,42,220)"/><path d="M-2.984648483461973,4.143859999436087L-19.53864990219288,-27.714457281822273L-24.25728724460566,-23.839113672358828z" style="fill:rgb(200,74,217)"/><path d="M27.34881281027951,2.505006186436115L7.833208348282128,-32.33894408672882L23.715639905624045,-0.05013478710618775z" style="fill:rgb(32,48,157)"/><path d="M13.699373599475372,-1.7953207378095306L-2.3842077895046305,-33.91981743927769L-8.236151356293504,-32.924497281644214z" style="fill:rgb(111,34,212)"/><path d="M-7.53933989077712,7.948144528464434L-24.25728724460566,-23.839113672358828L-27.926232456999625,-19.43215478394613z" style="fill:rgb(222,97,206)"/><path d="M106.80463652226572,-125.98856786928947L58.22845367985397,-67.06166373830597L104.6595622814626,-79.60168097770816z" style="fill:rgb(83,212,212)"/><path d="M-14.11073734731683,21.50159023915704L-30.55775109793981,-5.956251619023737L-13.412946209826433,25.73903507058857z" style="fill:rgb(246,169,146)"/><path d="M19.05984175073428,-1.5118020130795178L3.093596723614098,-33.72383083902059L-2.3842077895046305,-33.91981743927769z" style="fill:rgb(81,32,199)"/><path d="M29.701502190401953,5.994700535016225L11.510692998125519,-29.84412739943287L27.34881281027951,2.505006186436115z" style="fill:rgb(16,64,133)"/><path d="M-11.057897458934717,12.30058860921366L-27.926232456999625,-19.43215478394613L-30.297321404764823,-14.778449190671246z" style="fill:rgb(238,121,190)"/><path d="M62.30435692865582,1.1207080957223434L-7.477942882226579,-125.73725764825866L7.833208348282128,-32.33894408672882zM153.5751355411068,-89.3319675806486L133.85614520326988,-111.13867780273466L106.80463652226572,-125.98856786928947zM-167.1654591827109,25.42938233180706L-168.38993531466917,40.71134563044136L-163.3579335196525,69.77339179604785z" style="fill:rgb(83,212,212)"/><path d="M23.715639905624045,-0.05013478710618775L7.833208348282128,-32.33894408672882L3.093596723614098,-33.72383083902059z" style="fill:rgb(54,37,180)"/><path d="M117.66259397394965,-45.80877447814733L104.6595622814626,-79.60168097770816L58.22845367985397,-67.06166373830597z" style="fill:rgb(127,37,217)"/><path d="M-13.302064142673812,16.91955818417692L-30.297321404764823,-14.778449190671246L-31.20055714606118,-10.18360566608164z" style="fill:rgb(246,146,169)"/><path d="M-168.38993531466917,40.71134563044136L-168.08600500118263,48.21059824949214L-167.15319722093415,55.575087667565114zM62.30435692865582,1.1207080957223434L58.22845367985397,-67.06166373830597L47.98376026564542,-134.76294722640785z" style="fill:rgb(83,212,212)"/><path d="M27.34881281027951,2.505006186436115L11.510692998125519,-29.84412739943287L7.833208348282128,-32.33894408672882z" style="fill:rgb(32,48,157)"/><path d="M-14.11073734731683,21.50159023915704L-31.20055714606118,-10.18360566608164L-30.55775109793981,-5.956251619023737z" style="fill:rgb(246,169,146)"/><path d="M144.76075327132614,-101.07255780454531L139.55388651395663,-106.3202809353919L133.85614520326988,-111.13867780273466z" style="fill:rgb(83,212,212)"/><path d="M29.701502190401953,5.994700535016225L13.86437726697619,-26.39354780361763L11.510692998125519,-29.84412739943287z" style="fill:rgb(16,64,133)"/><path d="M-168.38993531466917,40.71134563044136L-167.15319722093415,55.575087667565114L-163.3579335196525,69.77339179604785zM153.5751355411068,-89.3319675806486L144.76075327132614,-101.07255780454531L133.85614520326988,-111.13867780273466z" style="fill:rgb(83,212,212)"/><path d="M72.47471364040253,-34.009337567015834L58.22845367985397,-67.06166373830597L62.30435692865582,1.1207080957223434z" style="fill:rgb(247,158,158)"/><path d="M-167.15319722093415,55.575087667565114L-165.58022746236236,62.773425130090864L-163.3579335196525,69.77339179604785zM-31.20055714606118,-10.18360566608164L-30.297321404764823,-14.778449190671246L-77.21675455788548,36.44965650568155zM153.5751355411068,-89.3319675806486L149.44489174275188,-95.40565040960723L144.76075327132614,-101.07255780454531zM-30.55775109793981,-5.956251619023737L-31.20055714606118,-10.18360566608164L-77.21675455788548,36.44965650568155zM-28.392100185528424,-2.38832839880933L-30.55775109793981,-5.956251619023737L-77.21675455788548,36.44965650568155zM163.4007981787607,-28.437242432967654L106.80463652226572,-125.98856786928947L104.6595622814626,-79.60168097770816z" style="fill:rgb(83,212,212)"/><path d="M72.47471364040253,-34.009337567015834L62.30435692865582,1.1207080957223434L77.38632992727433,34.24239696808183z" style="fill:rgb(247,158,158)"/><path d="M-24.832072806620264,0.2656620324648857L-28.392100185528424,-2.38832839880933L-77.21675455788548,36.44965650568155z" style="fill:rgb(83,212,212)"/><path d="M171.73469876408228,-41.30966995516773L162.34701789403888,-68.83154837781035L174.04605526576898,-34.07137650159234z" style="fill:rgb(246,166,149)"/><path d="M-126.38739444594496,124.8681566998447L-152.74134948479775,89.25134706994218L-131.2592604901621,118.95091036632678z" style="fill:rgb(28,51,152)"/><path d="M163.4007981787607,-28.437242432967654L153.5751355411068,-89.3319675806486L106.80463652226572,-125.98856786928947zM-20.1078680541609,1.8089209328205451L-24.832072806620264,0.2656620324648857L-77.21675455788548,36.44965650568155zM-122.5836459484379,47.93727421484247L-167.1654591827109,25.42938233180706L-122.02364015595187,114.61948079503634zM-167.1654591827109,25.42938233180706L-163.3579335196525,69.77339179604785L-122.02364015595187,114.61948079503634zM62.30435692865582,1.1207080957223434L7.833208348282128,-32.33894408672882L11.510692998125519,-29.84412739943287zM-163.3579335196525,69.77339179604785L-160.47958613865336,76.54207591550458L-156.9410949664688,83.04600380068032zM-14.539270469302036,2.12003957819323L-20.1078680541609,1.8089209328205451L-77.21675455788548,36.44965650568155zM-8.514642381577218,1.1657552665204423L-14.539270469302036,2.12003957819323L-77.21675455788548,36.44965650568155zM62.30435692865582,1.1207080957223434L11.510692998125519,-29.84412739943287L13.86437726697619,-26.39354780361763zM-77.21675455788548,36.44965650568155L-2.4621503427919706,-0.99336828183527L-8.514642381577218,1.1657552665204423zM160.05435118033805,-76.02619378259156L157.12126598034948,-82.86634802484294L153.5751355411068,-89.3319675806486z" style="fill:rgb(83,212,212)"/><path d="M174.04605526576898,-34.07137650159234L163.9738096290938,-61.30519692086723L175.71127766198677,-26.515792625577827z" style="fill:rgb(247,161,155)"/><path d="M171.73469876408228,-41.30966995516773L160.05435118033805,-76.02619378259156L162.34701789403888,-68.83154837781035z" style="fill:rgb(246,166,149)"/><path d="M-120.88560404931717,130.4268153006888L-147.8824160813647,95.12414256332967L-126.38739444594496,124.8681566998447z" style="fill:rgb(32,47,158)"/><path d="M62.30435692865582,1.1207080957223434L13.86437726697619,-26.39354780361763L14.7154310621487,-22.21028004140871zM-163.3579335196525,69.77339179604785L-156.9410949664688,83.04600380068032L-147.8824160813647,95.12414256332967zM62.30435692865582,1.1207080957223434L14.7154310621487,-22.21028004140871L13.984874488752158,-17.57444845576155z" style="fill:rgb(83,212,212)"/><path d="M-126.38739444594496,124.8681566998447L-147.8824160813647,95.12414256332967L-152.74134948479775,89.25134706994218z" style="fill:rgb(28,51,152)"/><path d="M62.30435692865582,1.1207080957223434L13.984874488752158,-17.57444845576155L11.70463152226471,-12.805647618399277z" style="fill:rgb(83,212,212)"/><path d="M175.71127766198677,-26.515792625577827L164.91154893187604,-53.472747969285855L176.7080058585158,-18.66910330817536z" style="fill:rgb(247,155,161)"/><path d="M163.9738096290938,-61.30519692086723L160.05435118033805,-76.02619378259156L153.5751355411068,-89.3319675806486z" style="fill:rgb(83,212,212)"/><path d="M174.04605526576898,-34.07137650159234L162.34701789403888,-68.83154837781035L163.9738096290938,-61.30519692086723z" style="fill:rgb(247,161,155)"/><path d="M-114.76410161681063,135.593713741437L-142.36987116585868,100.63049369705611L-120.88560404931717,130.4268153006888z" style="fill:rgb(37,44,163)"/><path d="M62.30435692865582,1.1207080957223434L11.70463152226471,-12.805647618399277L8.020335394820133,-8.240312545604187zM62.30435692865582,1.1207080957223434L8.020335394820133,-8.240312545604187L3.184243629179827,-4.2057474273803965zM-77.21675455788548,36.44965650568155L62.30435692865582,1.1207080957223434L-2.4621503427919706,-0.99336828183527zM62.30435692865582,1.1207080957223434L3.184243629179827,-4.2057474273803965L-2.4621503427919706,-0.99336828183527zM-156.9410949664688,83.04600380068032L-152.74134948479775,89.25134706994218L-147.8824160813647,95.12414256332967zM-77.21675455788548,36.44965650568155L-122.5836459484379,47.93727421484247L-122.02364015595187,114.61948079503634z" style="fill:rgb(83,212,212)"/><path d="M-120.88560404931717,130.4268153006888L-142.36987116585868,100.63049369705611L-147.8824160813647,95.12414256332967z" style="fill:rgb(32,47,158)"/><path d="M176.7080058585158,-18.66910330817536L165.13971581961943,-45.36262800332176L177.01646320766238,-10.560233463497658z" style="fill:rgb(246,149,166)"/><path d="M175.71127766198677,-26.515792625577827L163.9738096290938,-61.30519692086723L164.91154893187604,-53.472747969285855z" style="fill:rgb(247,155,161)"/><path d="M163.9738096290938,-61.30519692086723L162.34701789403888,-68.83154837781035L160.05435118033805,-76.02619378259156z" style="fill:rgb(83,212,212)"/><path d="M-108.03690918819076,140.33630321588186L-136.21302490628025,105.73690610446315L-114.76410161681063,135.593713741437z" style="fill:rgb(42,41,169)"/><path d="M-163.3579335196525,69.77339179604785L-147.8824160813647,95.12414256332967L-122.02364015595187,114.61948079503634z" style="fill:rgb(83,212,212)"/><path d="M-114.76410161681063,135.593713741437L-136.21302490628025,105.73690610446315L-142.36987116585868,100.63049369705611z" style="fill:rgb(37,44,163)"/><path d="M177.01646320766238,-10.560233463497658L164.64082373705847,-37.006108739208365L176.61980252732067,-2.2208115710996106z" style="fill:rgb(245,143,172)"/><path d="M176.7080058585158,-18.66910330817536L164.91154893187604,-53.472747969285855L165.13971581961943,-45.36262800332176z" style="fill:rgb(246,149,166)"/><path d="M163.4007981787607,-28.437242432967654L163.9738096290938,-61.30519692086723L153.5751355411068,-89.3319675806486z" style="fill:rgb(83,212,212)"/><path d="M-100.72203470534085,144.62304979022565L-129.4251361732724,110.41052316361491L-108.03690918819076,140.33630321588186z" style="fill:rgb(48,39,174)"/><path d="M163.4007981787607,-28.437242432967654L104.6595622814626,-79.60168097770816L112.0743126022052,-11.481830023717533zM-77.21675455788548,36.44965650568155L-122.02364015595187,114.61948079503634L62.30435692865582,1.1207080957223434zM-147.8824160813647,95.12414256332967L-142.36987116585868,100.63049369705611L-136.21302490628025,105.73690610446315z" style="fill:rgb(83,212,212)"/><path d="M176.61980252732067,-2.2208115710996106L163.4007981787607,-28.437242432967654L175.5044671169728,6.314872033962498z" style="fill:rgb(244,137,177)"/><path d="M-108.03690918819076,140.33630321588186L-129.4251361732724,110.41052316361491L-136.21302490628025,105.73690610446315z" style="fill:rgb(42,41,169)"/><path d="M-92.84163603090074,148.42367959579263L-122.02364015595187,114.61948079503634L-100.72203470534085,144.62304979022565z" style="fill:rgb(54,37,179)"/><path d="M177.01646320766238,-10.560233463497658L165.13971581961943,-45.36262800332176L164.64082373705847,-37.006108739208365z" style="fill:rgb(245,143,172)"/><path d="M165.13971581961943,-45.36262800332176L164.91154893187604,-53.472747969285855L163.9738096290938,-61.30519692086723zM-147.8824160813647,95.12414256332967L-136.21302490628025,105.73690610446315L-122.02364015595187,114.61948079503634z" style="fill:rgb(83,212,212)"/><path d="M175.5044671169728,6.314872033962498L161.4093281301317,-19.692793703176335L173.6605385683271,15.009970343533698z" style="fill:rgb(242,131,182)"/><path d="M-100.72203470534085,144.62304979022565L-122.02364015595187,114.61948079503634L-129.4251361732724,110.41052316361491z" style="fill:rgb(48,39,174)"/><path d="M-84.42211322095325,151.70959877293208L-114.03029467104075,118.33326807297867L-92.84163603090074,148.42367959579263z" style="fill:rgb(60,35,184)"/><path d="M176.61980252732067,-2.2208115710996106L164.64082373705847,-37.006108739208365L163.4007981787607,-28.437242432967654z" style="fill:rgb(244,137,177)"/><path d="M163.4007981787607,-28.437242432967654L165.13971581961943,-45.36262800332176L163.9738096290938,-61.30519692086723zM-122.02364015595187,114.61948079503634L112.0743126022052,-11.481830023717533L62.30435692865582,1.1207080957223434zM-136.21302490628025,105.73690610446315L-129.4251361732724,110.41052316361491L-122.02364015595187,114.61948079503634z" style="fill:rgb(83,212,212)"/><path d="M173.6605385683271,15.009970343533698L158.660283993858,-10.812096202249672L171.08206351213565,23.825214458004762z" style="fill:rgb(240,125,187)"/><path d="M-92.84163603090074,148.42367959579263L-114.03029467104075,118.33326807297867L-122.02364015595187,114.61948079503634z" style="fill:rgb(54,37,179)"/><path d="M-75.49418255529343,154.45424255398282L-105.47134992735508,121.52305338693803L-84.42211322095325,151.70959877293208z" style="fill:rgb(66,34,189)"/><path d="M175.5044671169728,6.314872033962498L163.4007981787607,-28.437242432967654L161.4093281301317,-19.692793703176335z" style="fill:rgb(242,131,182)"/><path d="M163.4007981787607,-28.437242432967654L164.64082373705847,-37.006108739208365L165.13971581961943,-45.36262800332176z" style="fill:rgb(83,212,212)"/><path d="M171.08206351213565,23.825214458004762L155.1520045849749,-1.8368784622365932L167.76741584257312,32.71911155055101z" style="fill:rgb(237,120,191)"/><path d="M-122.02364015595187,114.61948079503634L163.4007981787607,-28.437242432967654L112.0743126022052,-11.481830023717533z" style="fill:rgb(83,212,212)"/><path d="M-66.09284788030683,156.63342077070888L-96.37755246224906,124.16207425089755L-75.49418255529343,154.45424255398282z" style="fill:rgb(73,33,193)"/><path d="M-84.42211322095325,151.70959877293208L-105.47134992735508,121.52305338693803L-114.03029467104075,118.33326807297867z" style="fill:rgb(60,35,184)"/><path d="M173.6605385683271,15.009970343533698L161.4093281301317,-19.692793703176335L158.660283993858,-10.812096202249672z" style="fill:rgb(240,125,187)"/><path d="M167.76741584257312,32.71911155055101L150.8876050521669,7.188973822075077L163.71950778995463,41.64816536103735z" style="fill:rgb(234,114,195)"/><path d="M-56.25737175291081,158.22570110559832L-86.78421853505716,126.22603500992798L-66.09284788030683,156.63342077070888z" style="fill:rgb(79,32,198)"/><path d="M-122.02364015595187,114.61948079503634L-114.03029467104075,118.33326807297867L-105.47134992735508,121.52305338693803z" style="fill:rgb(83,212,212)"/><path d="M-75.49418255529343,154.45424255398282L-96.37755246224906,124.16207425089755L-105.47134992735508,121.52305338693803z" style="fill:rgb(66,34,189)"/><path d="M171.08206351213565,23.825214458004762L158.660283993858,-10.812096202249672L155.1520045849749,-1.8368784622365932z" style="fill:rgb(237,120,191)"/><path d="M158.660283993858,-10.812096202249672L161.4093281301317,-19.692793703176335L163.4007981787607,-28.437242432967654z" style="fill:rgb(83,212,212)"/><path d="M163.71950778995463,41.64816536103735L145.87521733815257,16.219695076352615L158.94610167317143,50.56717211216417z" style="fill:rgb(230,108,199)"/><path d="M-46.03111632811232,159.21271179591812L-76.73117720617185,127.69346180503513L-56.25737175291081,158.22570110559832z" style="fill:rgb(86,32,201)"/><path d="M-66.09284788030683,156.63342077070888L-86.78421853505716,126.22603500992798L-96.37755246224906,124.16207425089755z" style="fill:rgb(73,33,193)"/><path d="M-122.02364015595187,114.61948079503634L-105.47134992735508,121.52305338693803L-86.78421853505716,126.22603500992798z" style="fill:rgb(83,212,212)"/><path d="M167.76741584257312,32.71911155055101L155.1520045849749,-1.8368784622365932L150.8876050521669,7.188973822075077z" style="fill:rgb(234,114,195)"/><path d="M158.94610167317143,50.56717211216417L140.12828124975763,25.207972694714254L153.4599223441066,59.429549907167385z" style="fill:rgb(226,102,203)"/><path d="M150.8876050521669,7.188973822075077L158.660283993858,-10.812096202249672L163.4007981787607,-28.437242432967654z" style="fill:rgb(83,212,212)"/><path d="M-35.461378556742105,159.57958899611407L-66.26262311982484,128.54607425805062L-46.03111632811232,159.21271179591812z" style="fill:rgb(94,32,205)"/><path d="M-56.25737175291081,158.22570110559832L-76.73117720617185,127.69346180503513L-86.78421853505716,126.22603500992798z" style="fill:rgb(79,32,198)"/><path d="M-105.47134992735508,121.52305338693803L-96.37755246224906,124.16207425089755L-86.78421853505716,126.22603500992798z" style="fill:rgb(83,212,212)"/><path d="M163.71950778995463,41.64816536103735L150.8876050521669,7.188973822075077L145.87521733815257,16.219695076352615z" style="fill:rgb(230,108,199)"/><path d="M153.4599223441066,59.429549907167385L133.66553942624566,34.10532878693281L147.27885472075155,68.18770216194673z" style="fill:rgb(222,96,207)"/><path d="M-24.59912508527491,159.31514546208274L-55.42697661561055,128.7691195530075L-35.461378556742105,159.57958899611407z" style="fill:rgb(101,32,208)"/><path d="M150.8876050521669,7.188973822075077L155.1520045849749,-1.8368784622365932L158.660283993858,-10.812096202249672zM-122.02364015595187,114.61948079503634L49.01047204381292,102.10467523850191L163.4007981787607,-28.437242432967654zM-122.02364015595187,114.61948079503634L-86.78421853505716,126.22603500992798L-44.276574270108036,128.35175015593114z" style="fill:rgb(83,212,212)"/><path d="M-46.03111632811232,159.21271179591812L-66.26262311982484,128.54607425805062L-76.73117720617185,127.69346180503513z" style="fill:rgb(86,32,201)"/><path d="M147.27885472075155,68.18770216194673L126.51125484629455,42.86253609353882L140.42599156765812,76.79342797430981z" style="fill:rgb(217,91,210)"/><path d="M158.94610167317143,50.56717211216417L145.87521733815257,16.219695076352615L140.12828124975763,25.207972694714254z" style="fill:rgb(226,102,203)"/><path d="M-13.498637010142792,158.41224704934325L-44.276574270108036,128.35175015593114L-24.59912508527491,159.31514546208274z" style="fill:rgb(108,33,211)"/><path d="M126.51125484629455,42.86253609353882L150.8876050521669,7.188973822075077L163.4007981787607,-28.437242432967654z" style="fill:rgb(83,212,212)"/><path d="M140.42599156765812,76.79342797430981L118.69512752009254,51.430079776291265L132.92959766816688,85.19839077734552z" style="fill:rgb(212,85,213)"/><path d="M-35.461378556742105,159.57958899611407L-55.42697661561055,128.7691195530075L-66.26262311982484,128.54607425805062z" style="fill:rgb(94,32,205)"/><path d="M-2.217137887168053,156.86803869782298L-32.86735668466167,127.28722176096832L-13.498637010142792,158.41224704934325z" style="fill:rgb(116,34,214)"/><path d="M153.4599223441066,59.429549907167385L140.12828124975763,25.207972694714254L133.66553942624566,34.10532878693281z" style="fill:rgb(222,96,207)"/><path d="M-86.78421853505716,126.22603500992798L-76.73117720617185,127.69346180503513L-66.26262311982484,128.54607425805062z" style="fill:rgb(83,212,212)"/><path d="M132.92959766816688,85.19839077734552L110.25221418471259,59.75865042162902L124.82306109719777,93.35457055068656z" style="fill:rgb(206,80,215)"/><path d="M9.18568777215081,154.68403994579694L-21.25844609498457,125.57320586637691L-2.217137887168053,156.86803869782298z" style="fill:rgb(123,36,216)"/><path d="M-24.59912508527491,159.31514546208274L-44.276574270108036,128.35175015593114L-55.42697661561055,128.7691195530075z" style="fill:rgb(101,32,208)"/><path d="M140.12828124975763,25.207972694714254L145.87521733815257,16.219695076352615L150.8876050521669,7.188973822075077z" style="fill:rgb(83,212,212)"/><path d="M147.27885472075155,68.18770216194673L133.66553942624566,34.10532878693281L126.51125484629455,42.86253609353882z" style="fill:rgb(217,91,210)"/><path d="M124.82306109719777,93.35457055068656L101.22276611547598,67.79964464979624L116.1447142048373,101.21472922135706z" style="fill:rgb(200,75,217)"/><path d="M20.64821048242793,151.8663517950131L-9.511665405680336,123.21192736139379L9.18568777215081,154.68403994579694z" style="fill:rgb(131,38,218)"/><path d="M-86.78421853505716,126.22603500992798L-66.26262311982484,128.54607425805062L-44.276574270108036,128.35175015593114zM-122.02364015595187,114.61948079503634L-44.276574270108036,128.35175015593114L49.01047204381292,102.10467523850191z" style="fill:rgb(83,212,212)"/><path d="M116.1447142048373,101.21472922135706L91.65196759542243,75.50568708107816L106.93762274510314,108.73298373755989z" style="fill:rgb(194,70,219)"/><path d="M32.10742287477665,148.42571663956164L2.3090090219264052,120.21032998068937L20.64821048242793,151.8663517950131z" style="fill:rgb(138,40,220)"/><path d="M-13.498637010142792,158.41224704934325L-32.86735668466167,127.28722176096832L-44.276574270108036,128.35175015593114z" style="fill:rgb(108,33,211)"/><path d="M140.42599156765812,76.79342797430981L126.51125484629455,42.86253609353882L118.69512752009254,51.430079776291265z" style="fill:rgb(212,85,213)"/><path d="M126.51125484629455,42.86253609353882L140.12828124975763,25.207972694714254L150.8876050521669,7.188973822075077zM49.01047204381292,102.10467523850191L126.51125484629455,42.86253609353882L163.4007981787607,-28.437242432967654z" style="fill:rgb(83,212,212)"/><path d="M106.93762274510314,108.73298373755989L81.58961106308593,82.83115378603048L97.24920770924639,115.86521093079354z" style="fill:rgb(188,65,220)"/><path d="M43.49955232139159,144.37742656399135L14.138048099670153,116.58007181513607L32.10742287477665,148.42571663956164z" style="fill:rgb(146,43,221)"/><path d="M97.24920770924639,115.86521093079354L71.08964008023565,89.73268040335978L87.13090109000568,122.56959790992632z" style="fill:rgb(181,61,221)"/><path d="M54.76069366962326,139.74137884854102L25.909013252077354,112.3375792561945L43.49955232139159,144.37742656399135z" style="fill:rgb(153,46,222)"/><path d="M87.13090109000568,122.56959790992632L60.20968716696744,96.16965677823663L76.63767125121022,128.80708293223668z" style="fill:rgb(175,57,222)"/><path d="M-2.217137887168053,156.86803869782298L-21.25844609498457,125.57320586637691L-32.86735668466167,127.28722176096832z" style="fill:rgb(116,34,214)"/><path d="M-66.26262311982484,128.54607425805062L-55.42697661561055,128.7691195530075L-44.276574270108036,128.35175015593114z" style="fill:rgb(83,212,212)"/><path d="M65.82746727184954,134.54178768621642L37.555224104140464,107.50392877336336L54.76069366962326,139.74137884854102z" style="fill:rgb(160,49,222)"/><path d="M76.63767125121022,128.80708293223668L49.01047204381292,102.10467523850191L65.82746727184954,134.54178768621642z" style="fill:rgb(168,53,222)"/><path d="M132.92959766816688,85.19839077734552L118.69512752009254,51.430079776291265L110.25221418471259,59.75865042162902z" style="fill:rgb(206,80,215)"/><path d="M126.51125484629455,42.86253609353882L133.66553942624566,34.10532878693281L140.12828124975763,25.207972694714254z" style="fill:rgb(83,212,212)"/><path d="M9.18568777215081,154.68403994579694L-9.511665405680336,123.21192736139379L-21.25844609498457,125.57320586637691z" style="fill:rgb(123,36,216)"/><path d="M124.82306109719777,93.35457055068656L110.25221418471259,59.75865042162902L101.22276611547598,67.79964464979624z" style="fill:rgb(200,75,217)"/><path d="M20.64821048242793,151.8663517950131L2.3090090219264052,120.21032998068937L-9.511665405680336,123.21192736139379z" style="fill:rgb(131,38,218)"/><path d="M116.1447142048373,101.21472922135706L101.22276611547598,67.79964464979624L91.65196759542243,75.50568708107816z" style="fill:rgb(194,70,219)"/><path d="M32.10742287477665,148.42571663956164L14.138048099670153,116.58007181513607L2.3090090219264052,120.21032998068937z" style="fill:rgb(138,40,220)"/><path d="M106.93762274510314,108.73298373755989L91.65196759542243,75.50568708107816L81.58961106308593,82.83115378603048z" style="fill:rgb(188,65,220)"/><path d="M-44.276574270108036,128.35175015593114L-32.86735668466167,127.28722176096832L-21.25844609498457,125.57320586637691z" style="fill:rgb(83,212,212)"/><path d="M43.49955232139159,144.37742656399135L25.909013252077354,112.3375792561945L14.138048099670153,116.58007181513607z" style="fill:rgb(146,43,221)"/><path d="M97.24920770924639,115.86521093079354L81.58961106308593,82.83115378603048L71.08964008023565,89.73268040335978z" style="fill:rgb(181,61,221)"/><path d="M110.25221418471259,59.75865042162902L118.69512752009254,51.430079776291265L126.51125484629455,42.86253609353882z" style="fill:rgb(83,212,212)"/><path d="M54.76069366962326,139.74137884854102L37.555224104140464,107.50392877336336L25.909013252077354,112.3375792561945z" style="fill:rgb(153,46,222)"/><path d="M87.13090109000568,122.56959790992632L71.08964008023565,89.73268040335978L60.20968716696744,96.16965677823663z" style="fill:rgb(175,57,222)"/><path d="M65.82746727184954,134.54178768621642L49.01047204381292,102.10467523850191L37.555224104140464,107.50392877336336z" style="fill:rgb(160,49,222)"/><path d="M76.63767125121022,128.80708293223668L60.20968716696744,96.16965677823663L49.01047204381292,102.10467523850191z" style="fill:rgb(168,53,222)"/><path d="M-44.276574270108036,128.35175015593114L-21.25844609498457,125.57320586637691L2.3090090219264052,120.21032998068937zM91.65196759542243,75.50568708107816L110.25221418471259,59.75865042162902L126.51125484629455,42.86253609353882zM-44.276574270108036,128.35175015593114L2.3090090219264052,120.21032998068937L49.01047204381292,102.10467523850191zM-21.25844609498457,125.57320586637691L-9.511665405680336,123.21192736139379L2.3090090219264052,120.21032998068937zM49.01047204381292,102.10467523850191L91.65196759542243,75.50568708107816L126.51125484629455,42.86253609353882zM91.65196759542243,75.50568708107816L101.22276611547598,67.79964464979624L110.25221418471259,59.75865042162902zM2.3090090219264052,120.21032998068937L14.138048099670153,116.58007181513607L25.909013252077354,112.3375792561945zM71.08964008023565,89.73268040335978L81.58961106308593,82.83115378603048L91.65196759542243,75.50568708107816zM2.3090090219264052,120.21032998068937L25.909013252077354,112.3375792561945L49.01047204381292,102.10467523850191zM49.01047204381292,102.10467523850191L71.08964008023565,89.73268040335978L91.65196759542243,75.50568708107816zM25.909013252077354,112.3375792561945L37.555224104140464,107.50392877336336L49.01047204381292,102.10467523850191zM49.01047204381292,102.10467523850191L60.20968716696744,96.16965677823663L71.08964008023565,89.73268040335978z" style="fill:rgb(83,212,212)"/></svg>
