<?xml version="1.0" encoding="UTF-8"?>
<!-- Generated by jsxcad -->
<!DOCTYPE svg PUBLIC "-//W3C//DTD SVG 1.1 Tiny//EN" "http://www.w3.org/Graphics/SVG/1.1/DTD/svg11-tiny.dtd">
<svg viewBox="-250 -250 500 500" width="500" height="500" xmlns="http://www.w3.org/2000/svg"><path d="M-76.89557195390033,-30.567645319542777L-55.39953688840356,-66.56612004084344L-71.81600032921955,-97.32253981332933zM-15.151422150393788,-123.36020493299446L-0.2375927735169646,6.3229821329529825L-0.21533646335426987,-91.79507675304737zM-10.134623135107338,-124.91428645892074L5.1599807573330905,3.539448085801566L4.681788185589906,-93.27230250522364zM-4.818669243619571,-126.45051893927412L10.882109347527168,2.073495073002709L9.872335983036972,-94.7262673666095z" style="fill:rgb(247,158,158)"/><path d="M-109.17250245920683,-69.78213275170114L-110.42008304862114,-21.513411179510495L-101.89593153496887,-76.01834173673419zM-116.1340873846413,-63.318893708532265L-110.42008304862114,-21.513411179510495L-109.17250245920683,-69.78213275170114z" style="fill:rgb(83,212,212)"/><path d="M-55.39953688840356,-66.56612004084344L-76.89557195390033,-30.567645319542777L-59.20487415395852,0.3747581995504421z" style="fill:rgb(247,158,158)"/><path d="M-122.75853549357831,-56.64426712786651L-110.42008304862114,-21.513411179510495L-116.1340873846413,-63.318893708532265z" style="fill:rgb(83,212,212)"/><path d="M-21.439332140916537,-21.699484063142727L-4.293517377547313,-90.45508430927094L-19.330819781949057,-121.95698044595355zM-24.730029404803286,-17.20682952935777L-7.1166002635695245,-89.48125026606708L-22.22461661612132,-120.93970341679746z" style="fill:rgb(247,158,158)"/><path d="M-129.0237576344547,-49.77461213773848L-110.42008304862114,-21.513411179510495L-122.75853549357831,-56.64426712786651z" style="fill:rgb(83,212,212)"/><path d="M0.24594907744197705,-30.086085851519766L14.795549620921078,-95.99950119509207L0.2221780131877277,-127.80255062099074z" style="fill:rgb(247,158,158)"/><path d="M-134.9077220884555,-42.7270766568249L-110.42008304862114,-21.513411179510495L-129.0237576344547,-49.77461213773848z" style="fill:rgb(83,212,212)"/><path d="M4.926409644598972,-28.664090925205304L18.915417093148818,-96.95457668998135L4.439048105504014,-128.8243439843007z" style="fill:rgb(247,158,158)"/><path d="M-140.38849130364534,-35.51962533135529L-110.42008304862114,-21.513411179510495L-134.9077220884555,-42.7270766568249z" style="fill:rgb(83,212,212)"/><path d="M8.205777491619193,-25.87726970281139L21.77785625611809,-97.57161412842099L7.368332356825413,-129.48808381827521z" style="fill:rgb(247,158,158)"/><path d="M-145.44429324263214,-28.17109934467588L-110.42008304862114,-21.513411179510495L-140.38849130364534,-35.51962533135529zM-61.56734097511533,-103.29016830783043L151.57541950395762,-92.27262061358684L-52.869423704985515,-107.86966095121137zM-52.869423704985515,-107.86966095121137L151.57541950395762,-92.27262061358684L-44.013691212327025,-112.12875264515884zM-70.08459601117876,-98.40216735581325L151.57541950395762,-92.27262061358684L-61.56734097511533,-103.29016830783043zM-44.013691212327025,-112.12875264515884L151.57541950395762,-92.27262061358684L-35.023194455123,-116.0559510751772zM-78.39854463897285,-93.21796533092031L151.57541950395762,-92.27262061358684L-70.08459601117876,-98.40216735581325zM-35.023194455123,-116.0559510751772L151.57541950395762,-92.27262061358684L-25.92125584435822,-119.64019407053796zM-86.48666769100208,-87.75032992940822L151.57541950395762,-92.27262061358684L-78.39854463897285,-93.21796533092031zM-150.05350828543666,-20.7012722098766L-110.42008304862114,-21.513411179510495L-145.44429324263214,-28.17109934467588zM-25.92125584435822,-119.64019407053796L151.57541950395762,-92.27262061358684L-16.731508766822373,-122.870732802865zM-94.32656445910489,-82.01252072560288L151.57541950395762,-92.27262061358684L-86.48666769100208,-87.75032992940822zM-16.731508766822373,-122.870732802865L151.57541950395762,-92.27262061358684L-7.477942882226579,-125.73725764825866z" style="fill:rgb(83,212,212)"/><path d="M-76.89557195390033,-30.567645319542777L-91.91489023086126,8.915978068770892L-59.20487415395852,0.3747581995504421z" style="fill:rgb(127,37,217)"/><path d="M-101.89593153496887,-76.01834173673419L151.57541950395762,-92.27262061358684L-94.32656445910489,-82.01252072560288zM-7.477942882226579,-125.73725764825866L151.57541950395762,-92.27262061358684L1.8150478445437408,-128.2297847166809zM-154.19480508298244,-13.130899371459606L-110.42008304862114,-21.513411179510495L-150.05350828543666,-20.7012722098766z" style="fill:rgb(83,212,212)"/><path d="M-104.78555291616813,-73.5418565895366L-103.6441454619084,142.9105984768261L-87.35223804013368,-43.20761417209919z" style="fill:rgb(247,158,158)"/><path d="M1.8150478445437408,-128.2297847166809L151.57541950395762,-92.27262061358684L11.12262099589583,-130.3387527724663zM11.12262099589583,-130.3387527724663L151.57541950395762,-92.27262061358684L20.419440335285298,-132.0550304331725zM-110.42008304862114,-21.513411179510495L-154.19480508298244,-13.130899371459606L-156.0805718228907,-9.181518376649047z" style="fill:rgb(83,212,212)"/><path d="M-91.91489023086126,8.915978068770892L-76.89557195390033,-30.567645319542777L-110.42008304862114,-21.513411179510495z" style="fill:rgb(127,37,217)"/><path d="M20.419440335285298,-132.0550304331725L151.57541950395762,-92.27262061358684L29.679629929918836,-133.36988133480773z" style="fill:rgb(83,212,212)"/><path d="M-4.293517377547313,-90.45508430927094L-21.439332140916537,-21.699484063142727L-4.747812002111781,10.133884071936574zM94.3310218930485,-129.87021201922528L112.81211645759686,-44.54222085636639L106.93731445906144,-96.4398193183191zM-7.1166002635695245,-89.48125026606708L-24.730029404803286,-17.20682952935777L-7.894780179889409,14.577372863650183z" style="fill:rgb(247,158,158)"/><path d="M29.679629929918836,-133.36988133480773L151.57541950395762,-92.27262061358684L38.87675380626768,-134.27507790517424z" style="fill:rgb(83,212,212)"/><path d="M14.795549620921078,-95.99950119509207L0.24594907744197705,-30.086085851519766L16.331019860191073,2.0840022309806567z" style="fill:rgb(247,158,158)"/><path d="M38.87675380626768,-134.27507790517424L151.57541950395762,-92.27262061358684L47.98376026564542,-134.76294722640785z" style="fill:rgb(83,212,212)"/><path d="M18.915417093148818,-96.95457668998135L4.926409644598972,-28.664090925205304L20.929561845310353,3.5813619323043677z" style="fill:rgb(247,158,158)"/><path d="M47.98376026564542,-134.76294722640785L151.57541950395762,-92.27262061358684L56.972976509790385,-134.8263441016273z" style="fill:rgb(83,212,212)"/><path d="M-0.2375927735169646,6.3229821329529825L-15.151422150393788,-123.36020493299446L-16.765674494954993,-25.5812279627096zM5.1599807573330905,3.539448085801566L-10.134623135107338,-124.91428645892074L-11.201663895969478,-28.45037443428817zM21.77785625611809,-97.57161412842099L8.205777491619193,-25.87726970281139L24.17811443668767,6.421710320579797zM10.882109347527168,2.073495073002709L-4.818669243619571,-126.45051893927412L-5.326749525789778,-30.00814686455291z" style="fill:rgb(247,158,158)"/><path d="M-101.89593153496887,-76.01834173673419L-110.42008304862114,-21.513411179510495L151.57541950395762,-92.27262061358684zM56.972976509790385,-134.8263441016273L151.57541950395762,-92.27262061358684L65.81609773564078,-134.45884421932018zM65.81609773564078,-134.45884421932018L151.57541950395762,-92.27262061358684L74.48415573084304,-133.65472201811716zM-157.84716788832932,-5.481751802253599L-166.39784951165862,59.031723568433286L-156.0805718228907,-9.181518376649047zM74.48415573084304,-133.65472201811716L151.57541950395762,-92.27262061358684L82.94755420506601,-132.4090824687101zM-160.99005171452185,2.2233335122494946L-167.15319722093415,55.575087667565114L-157.84716788832932,-5.481751802253599zM-163.60345884861235,9.960431312450309L-168.08600500118263,48.21059824949214L-160.99005171452185,2.2233335122494946zM82.94755420506601,-132.4090824687101L151.57541950395762,-92.27262061358684L91.17606149679317,-130.71794362221578zM-165.6680814870028,17.704500647246256L-168.38993531466917,40.71134563044136L-163.60345884861235,9.960431312450309zM-156.0805718228907,-9.181518376649047L-117.81049937050192,46.72863834053068L-110.42008304862114,-21.513411179510495zM-168.07815165213074,33.10778991711644L-165.6680814870028,17.704500647246256L-167.1654591827109,25.42938233180706z" style="fill:rgb(83,212,212)"/><path d="M-29.84165703163648,126.84048312765117L-8.38275082741823,-89.04448214641877L-23.522456100948595,-120.48345402592662z" style="fill:rgb(247,158,158)"/><path d="M91.17606149679317,-130.71794362221578L151.57541950395762,-92.27262061358684L99.1388709836718,-128.57836301027035zM-165.6680814870028,17.704500647246256L-168.07815165213074,33.10778991711644L-168.38993531466917,40.71134563044136z" style="fill:rgb(83,212,212)"/><path d="M112.81211645759686,-44.54222085636639L94.3310218930485,-129.87021201922528L99.67413675606129,-78.2552277162964z" style="fill:rgb(247,158,158)"/><path d="M-11.201663895969478,-28.45037443428817L-0.2375927735169646,6.3229821329529825L5.1599807573330905,3.539448085801566z" style="fill:rgb(166,52,222)"/><path d="M99.1388709836718,-128.57836301027035L151.57541950395762,-92.27262061358684L106.80463652226572,-125.98856786928947z" style="fill:rgb(83,212,212)"/><path d="M-5.326749525789778,-30.00814686455291L5.1599807573330905,3.539448085801566L10.882109347527168,2.073495073002709z" style="fill:rgb(127,37,217)"/><path d="M-0.2375927735169646,6.3229821329529825L-21.439332140916537,-21.699484063142727L-4.747812002111781,10.133884071936574z" style="fill:rgb(201,75,217)"/><path d="M-163.60345884861235,9.960431312450309L-168.38993531466917,40.71134563044136L-168.08600500118263,48.21059824949214z" style="fill:rgb(83,212,212)"/><path d="M0.24594907744197705,-30.086085851519766L10.882109347527168,2.073495073002709L16.331019860191073,2.0840022309806567z" style="fill:rgb(88,32,202)"/><path d="M-4.747812002111781,10.133884071936574L-24.730029404803286,-17.20682952935777L-7.894780179889409,14.577372863650183z" style="fill:rgb(227,104,202)"/><path d="M11.041724054879445,117.53031191944257L23.064270065405406,-97.8489206828463L8.684834694955622,-129.78639304972558z" style="fill:rgb(247,158,158)"/><path d="M99.67413675606129,-78.2552277162964L77.23151263207843,-35.25142990454262L112.81211645759686,-44.54222085636639z" style="fill:rgb(127,37,217)"/><path d="M106.80463652226572,-125.98856786928947L151.57541950395762,-92.27262061358684L114.14155307868567,-122.94801696466105zM-160.99005171452185,2.2233335122494946L-168.08600500118263,48.21059824949214L-167.15319722093415,55.575087667565114z" style="fill:rgb(83,212,212)"/><path d="M58.80840005421648,-134.75006642228797L89.24180386368485,121.17091345263403L72.10893968122366,-101.96796241023806z" style="fill:rgb(247,158,158)"/><path d="M20.929561845310353,3.5813619323043677L0.24594907744197705,-30.086085851519766L16.331019860191073,2.0840022309806567z" style="fill:rgb(53,37,179)"/><path d="M-157.84716788832932,-5.481751802253599L-167.15319722093415,55.575087667565114L-166.39784951165862,59.031723568433286z" style="fill:rgb(83,212,212)"/><path d="M-7.894780179889409,14.577372863650183L-26.279623954754353,-12.572090963958948L-9.335722710949225,19.18944096945715z" style="fill:rgb(243,135,179)"/><path d="M64.40475753873903,-48.49790565887786L-76.89557195390033,-30.567645319542777L-78.41276655774382,-10.628918850463284zM114.14155307868567,-122.94801696466105L151.57541950395762,-92.27262061358684L121.11742941391684,-119.45761621779965z" style="fill:rgb(83,212,212)"/><path d="M24.17811443668767,6.421710320579797L4.926409644598972,-28.664090925205304L20.929561845310353,3.5813619323043677z" style="fill:rgb(27,52,151)"/><path d="M-26.279623954754353,-12.572090963958948L-8.898681730821131,23.479855979680057L-9.335722710949225,19.18944096945715z" style="fill:rgb(246,165,150)"/><path d="M-16.765674494954993,-25.5812279627096L-78.41276655774382,-10.628918850463284L-78.51935101967811,-9.228203248523105z" style="fill:rgb(83,212,212)"/><path d="M-0.2375927735169646,6.3229821329529825L-11.201663895969478,-28.45037443428817L-16.765674494954993,-25.5812279627096z" style="fill:rgb(166,52,222)"/><path d="M5.1599807573330905,3.539448085801566L-5.326749525789778,-30.00814686455291L-11.201663895969478,-28.45037443428817z" style="fill:rgb(127,37,217)"/><path d="M-21.439332140916537,-21.699484063142727L-0.2375927735169646,6.3229821329529825L-16.765674494954993,-25.5812279627096z" style="fill:rgb(201,75,217)"/><path d="M-156.0805718228907,-9.181518376649047L-166.39784951165862,59.031723568433286L-117.81049937050192,46.72863834053068zM-21.439332140916537,-21.699484063142727L-78.51935101967811,-9.228203248523105L-78.72176433586245,-6.568120932851258z" style="fill:rgb(83,212,212)"/><path d="M77.23151263207843,-35.25142990454262L99.67413675606129,-78.2552277162964L63.1146485991632,-68.38131700764905z" style="fill:rgb(127,37,217)"/><path d="M10.882109347527168,2.073495073002709L0.24594907744197705,-30.086085851519766L-5.326749525789778,-30.00814686455291z" style="fill:rgb(88,32,202)"/><path d="M-24.730029404803286,-17.20682952935777L-4.747812002111781,10.133884071936574L-21.439332140916537,-21.699484063142727z" style="fill:rgb(227,104,202)"/><path d="M-76.89557195390033,-30.567645319542777L64.40475753873903,-48.49790565887786L63.1146485991632,-68.38131700764905zM121.11742941391684,-119.45761621779965L151.57541950395762,-92.27262061358684L127.69980427548543,-115.51978780182094zM-24.730029404803286,-17.20682952935777L-78.72176433586245,-6.568120932851258L-78.9993383293384,-2.9202879197366753zM-78.41276655774382,-10.628918850463284L-16.765674494954993,-25.5812279627096L-11.201663895969478,-28.45037443428817zM-78.51935101967811,-9.228203248523105L-21.439332140916537,-21.699484063142727L-16.765674494954993,-25.5812279627096z" style="fill:rgb(83,212,212)"/><path d="M-26.279623954754353,-12.572090963958948L-7.894780179889409,14.577372863650183L-24.730029404803286,-17.20682952935777z" style="fill:rgb(243,135,179)"/><path d="M0.24594907744197705,-30.086085851519766L20.929561845310353,3.5813619323043677L4.926409644598972,-28.664090925205304z" style="fill:rgb(53,37,179)"/><path d="M-78.72176433586245,-6.568120932851258L-24.730029404803286,-17.20682952935777L-21.439332140916537,-21.699484063142727zM-26.279623954754353,-12.572090963958948L-78.9993383293384,-2.9202879197366753L-79.32321199639257,1.3360066133789792zM127.69980427548543,-115.51978780182094L151.57541950395762,-92.27262061358684L133.85614520326988,-111.13867780273466z" style="fill:rgb(83,212,212)"/><path d="M4.926409644598972,-28.664090925205304L24.17811443668767,6.421710320579797L8.205777491619193,-25.87726970281139z" style="fill:rgb(27,52,151)"/><path d="M-8.898681730821131,23.479855979680057L-26.279623954754353,-12.572090963958948L-25.903690990717763,-8.287908360782254z" style="fill:rgb(246,165,150)"/><path d="M-78.9993383293384,-2.9202879197366753L-26.279623954754353,-12.572090963958948L-24.730029404803286,-17.20682952935777zM-25.903690990717763,-8.287908360782254L-79.32321199639257,1.3360066133789792L-79.65894784717794,5.748192479028408zM133.85614520326988,-111.13867780273466L151.57541950395762,-92.27262061358684L139.55388651395663,-106.3202809353919zM-79.32321199639257,1.3360066133789792L-25.903690990717763,-8.287908360782254L-26.279623954754353,-12.572090963958948zM-23.618162338380323,-4.821514096803446L-79.65894784717794,5.748192479028408L-79.96997496007339,9.8356602588218zM0.24594907744197705,-30.086085851519766L64.40475753873903,-48.49790565887786L-5.326749525789778,-30.00814686455291zM139.55388651395663,-106.3202809353919L151.57541950395762,-92.27262061358684L144.76075327132614,-101.07255780454531zM-79.65894784717794,5.748192479028408L-23.618162338380323,-4.821514096803446L-25.903690990717763,-8.287908360782254zM-19.64791961964833,-2.5630960250420847L-79.96997496007339,9.8356602588218L-80.22161628826142,13.142689066114261zM4.926409644598972,-28.664090925205304L64.49545649128697,-47.10003371017984L0.24594907744197705,-30.086085851519766z" style="fill:rgb(83,212,212)"/><path d="M-103.6441454619084,142.9105984768261L-104.78555291616813,-73.5418565895366L-124.98076752533679,112.93787306928373z" style="fill:rgb(247,158,158)"/><path d="M-14.412206141645369,-1.7775340062392253L-80.22161628826142,13.142689066114261L-80.38525104433089,15.293150321785124zM-79.96997496007339,9.8356602588218L-19.64791961964833,-2.5630960250420847L-23.618162338380323,-4.821514096803446zM-80.44199545545831,16.038877025636626L-14.412206141645369,-1.7775340062392253L-80.38525104433089,15.293150321785124zM144.76075327132614,-101.07255780454531L151.57541950395762,-92.27262061358684L149.44489174275188,-95.40565040960723zM64.40475753873903,-48.49790565887786L0.24594907744197705,-30.086085851519766L64.49545649128697,-47.10003371017984zM8.205777491619193,-25.87726970281139L64.66772641994572,-44.44497753126303L4.926409644598972,-28.664090925205304zM-165.58022746236236,62.773425130090864L-77.20422710579926,36.446484951411186L-166.39784951165862,59.031723568433286zM64.49545649128697,-47.10003371017984L4.926409644598972,-28.664090925205304L64.66772641994572,-44.44497753126303zM-80.22161628826142,13.142689066114261L-14.412206141645369,-1.7775340062392253L-19.64791961964833,-2.5630960250420847zM9.711935085591954,-22.00912456813148L64.90401613929099,-40.8032338945024L8.205777491619193,-25.87726970281139zM-14.412206141645369,-1.7775340062392253L-80.44199545545831,16.038877025636626L-8.48414764106889,-2.5671260907333866zM64.66772641994572,-44.44497753126303L8.205777491619193,-25.87726970281139L64.90401613929099,-40.8032338945024zM-77.20422710579926,36.446484951411186L-165.58022746236236,62.773425130090864L-163.3579335196525,69.77339179604785z" style="fill:rgb(83,212,212)"/><path d="M160.05435118033805,-76.02619378259156L174.04605526576898,-34.07137650159234L171.73469876408228,-41.30966995516773z" style="fill:rgb(246,166,149)"/><path d="M-82.08898817337148,37.68338278608309L-8.48414764106889,-2.5671260907333866L-80.44199545545831,16.038877025636626zM65.46576187128399,-32.14550004590744L9.711935085591954,-22.00912456813148L9.256607740729386,-17.468656672523252zM64.90401613929099,-40.8032338945024L9.711935085591954,-22.00912456813148L65.1797953573127,-36.55287220551368z" style="fill:rgb(83,212,212)"/><path d="M-126.38739444594496,124.8681566998447L-152.74134948479775,89.25134706994218L-131.2592604901621,118.95091036632678z" style="fill:rgb(28,51,152)"/><path d="M-77.20422710579926,36.446484951411186L-163.3579335196525,69.77339179604785L-160.47958613865336,76.54207591550458zM9.711935085591954,-22.00912456813148L65.46576187128399,-32.14550004590744L65.1797953573127,-36.55287220551368zM65.73076106041724,-28.061278535299486L9.256607740729386,-17.468656672523252L6.866295761002441,-12.750558859249852zM-8.48414764106889,-2.5671260907333866L-82.08898817337148,37.68338278608309L-77.20422710579926,36.446484951411186z" style="fill:rgb(83,212,212)"/><path d="M162.34701789403888,-68.83154837781035L175.71127766198677,-26.515792625577827L174.04605526576898,-34.07137650159234z" style="fill:rgb(247,161,155)"/><path d="M-77.20422710579926,36.446484951411186L-160.47958613865336,76.54207591550458L-156.9410949664688,83.04600380068032zM65.94521828856075,-24.75602154776262L6.866295761002441,-12.750558859249852L2.7892871698003825,-8.380703370841216zM9.256607740729386,-17.468656672523252L65.73076106041724,-28.061278535299486L65.46576187128399,-32.14550004590744z" style="fill:rgb(83,212,212)"/><path d="M-120.88560404931717,130.4268153006888L-147.8824160813647,95.12414256332967L-126.38739444594496,124.8681566998447z" style="fill:rgb(32,47,158)"/><path d="M-25.903690990717763,-8.287908360782254L-10.02256893175233,157.93644652621123L-8.898681730821131,23.479855979680057z" style="fill:rgb(247,158,158)"/><path d="M66.08469993393851,-22.606302990785917L2.7892871698003825,-8.380703370841216L-2.526410507878307,-4.8530125156550685zM66.13307349176898,-21.860758304625527L-2.526410507878307,-4.8530125156550685L-8.48414764106889,-2.5671260907333866z" style="fill:rgb(83,212,212)"/><path d="M174.04605526576898,-34.07137650159234L160.05435118033805,-76.02619378259156L162.34701789403888,-68.83154837781035z" style="fill:rgb(246,166,149)"/><path d="M6.866295761002441,-12.750558859249852L65.94521828856075,-24.75602154776262L65.73076106041724,-28.061278535299486zM-77.20422710579926,36.446484951411186L-156.9410949664688,83.04600380068032L-152.74134948479775,89.25134706994218zM2.7892871698003825,-8.380703370841216L66.08469993393851,-22.606302990785917L65.94521828856075,-24.75602154776262z" style="fill:rgb(83,212,212)"/><path d="M-152.74134948479775,89.25134706994218L-126.38739444594496,124.8681566998447L-147.8824160813647,95.12414256332967z" style="fill:rgb(28,51,152)"/><path d="M-2.526410507878307,-4.8530125156550685L66.13307349176898,-21.860758304625527L66.08469993393851,-22.606302990785917z" style="fill:rgb(83,212,212)"/><path d="M-19.64791961964833,-2.5630960250420847L-3.009939221564103,156.97655538224652L-2.6891810842844666,29.300168993290942z" style="fill:rgb(247,158,158)"/><path d="M99.67413675606129,-78.2552277162964L162.44405654750184,-24.23624686858897L151.57541950395762,-92.27262061358684z" style="fill:rgb(83,212,212)"/><path d="M175.71127766198677,-26.515792625577827L164.91154893187604,-53.472747969285855L176.7080058585158,-18.66910330817536z" style="fill:rgb(247,155,161)"/><path d="M-114.76410161681063,135.593713741437L-142.36987116585868,100.63049369705611L-120.88560404931717,130.4268153006888z" style="fill:rgb(37,44,163)"/><path d="M-8.48414764106889,-2.5671260907333866L-77.20422710579926,36.446484951411186L67.53820568573771,-0.2045849012234356z" style="fill:rgb(83,212,212)"/><path d="M9.256607740729386,-17.468656672523252L28.562883851984573,149.48996042358317L25.332811720815343,14.848606210151084z" style="fill:rgb(247,158,158)"/><path d="M-77.20422710579926,36.446484951411186L-152.74134948479775,89.25134706994218L-147.8824160813647,95.12414256332967z" style="fill:rgb(83,212,212)"/><path d="M-8.38275082741823,-89.04448214641877L-29.84165703163648,126.84048312765117L-10.557999700281254,158.00974358886853zM-14.412206141645369,-1.7775340062392253L2.7285019252214835,155.92078844945488L2.441859589066647,30.166204599027957z" style="fill:rgb(247,158,158)"/><path d="M175.71127766198677,-26.515792625577827L162.34701789403888,-68.83154837781035L163.9738096290938,-61.30519692086723z" style="fill:rgb(247,161,155)"/><path d="M151.57541950395762,-92.27262061358684L163.4007981787607,-28.437242432967654L153.5751355411068,-89.3319675806486z" style="fill:rgb(83,212,212)"/><path d="M-8.48414764106889,-2.5671260907333866L9.18568777215081,154.68403994579694L8.22383104820746,29.468696288767898z" style="fill:rgb(247,158,158)"/><path d="M153.5751355411068,-89.3319675806486L164.64082373705847,-37.006108739208365L157.12126598034948,-82.86634802484294z" style="fill:rgb(83,212,212)"/><path d="M2.7892871698003825,-8.380703370841216L21.449311604058007,151.62581604051005L19.151192122686883,23.833151711522746zM-88.79355707468136,125.7937408105169L-63.080525626485255,68.55255529674135L-82.08898817337148,37.68338278608309z" style="fill:rgb(247,158,158)"/><path d="M-8.48414764106889,-2.5671260907333866L67.53820568573771,-0.2045849012234356L66.13307349176898,-21.860758304625527z" style="fill:rgb(83,212,212)"/><path d="M-147.8824160813647,95.12414256332967L-120.88560404931717,130.4268153006888L-142.36987116585868,100.63049369705611z" style="fill:rgb(32,47,158)"/><path d="M176.7080058585158,-18.66910330817536L165.13971581961943,-45.36262800332176L177.01646320766238,-10.560233463497658z" style="fill:rgb(246,149,166)"/><path d="M-77.20422710579926,36.446484951411186L-147.8824160813647,95.12414256332967L-142.36987116585868,100.63049369705611zM157.12126598034948,-82.86634802484294L165.13971581961943,-45.36262800332176L160.05435118033805,-76.02619378259156z" style="fill:rgb(83,212,212)"/><path d="M164.91154893187604,-53.472747969285855L175.71127766198677,-26.515792625577827L163.9738096290938,-61.30519692086723z" style="fill:rgb(247,155,161)"/><path d="M-108.03690918819076,140.33630321588186L-136.21302490628025,105.73690610446315L-114.76410161681063,135.593713741437z" style="fill:rgb(42,41,169)"/><path d="M-26.60798437902591,126.36304942230834L-6.607532637407273,26.981164828036608L-23.618162338380323,-4.821514096803446z" style="fill:rgb(247,158,158)"/><path d="M160.05435118033805,-76.02619378259156L164.91154893187604,-53.472747969285855L162.34701789403888,-68.83154837781035z" style="fill:rgb(83,212,212)"/><path d="M23.064270065405406,-97.8489206828463L11.041724054879445,117.53031191944257L29.108063133469685,149.32626586664924z" style="fill:rgb(247,158,158)"/><path d="M-77.20422710579926,36.446484951411186L-142.36987116585868,100.63049369705611L-136.21302490628025,105.73690610446315z" style="fill:rgb(83,212,212)"/><path d="M-142.36987116585868,100.63049369705611L-114.76410161681063,135.593713741437L-136.21302490628025,105.73690610446315z" style="fill:rgb(37,44,163)"/><path d="M177.01646320766238,-10.560233463497658L164.64082373705847,-37.006108739208365L176.61980252732067,-2.2208115710996106z" style="fill:rgb(245,143,172)"/><path d="M165.13971581961943,-45.36262800332176L176.7080058585158,-18.66910330817536L164.91154893187604,-53.472747969285855z" style="fill:rgb(246,149,166)"/><path d="M-100.72203470534085,144.62304979022565L-129.4251361732724,110.41052316361491L-108.03690918819076,140.33630321588186z" style="fill:rgb(48,39,174)"/><path d="M162.34701789403888,-68.83154837781035L164.91154893187604,-53.472747969285855L163.9738096290938,-61.30519692086723z" style="fill:rgb(83,212,212)"/><path d="M7.742927360787175,118.54268754424305L23.068537500587233,19.528498717323718L6.866295761002441,-12.750558859249852zM-2.8344991086500486,121.51640582101741L14.010857135677657,27.276431310909835L-2.526410507878307,-4.8530125156550685z" style="fill:rgb(247,158,158)"/><path d="M-77.20422710579926,36.446484951411186L-136.21302490628025,105.73690610446315L-129.4251361732724,110.41052316361491zM162.44405654750184,-24.23624686858897L99.67413675606129,-78.2552277162964L106.72660697166388,-10.12770673184604zM160.05435118033805,-76.02619378259156L165.13971581961943,-45.36262800332176L164.91154893187604,-53.472747969285855zM157.12126598034948,-82.86634802484294L164.64082373705847,-37.006108739208365L165.13971581961943,-45.36262800332176z" style="fill:rgb(83,212,212)"/><path d="M-63.080525626485255,68.55255529674135L-88.79355707468136,125.7937408105169L-68.06164939291247,156.1770608064987z" style="fill:rgb(247,158,158)"/><path d="M176.61980252732067,-2.2208115710996106L163.4007981787607,-28.437242432967654L175.5044671169728,6.314872033962498z" style="fill:rgb(244,137,177)"/><path d="M-136.21302490628025,105.73690610446315L-108.03690918819076,140.33630321588186L-129.4251361732724,110.41052316361491z" style="fill:rgb(42,41,169)"/><path d="M-92.84163603090074,148.42367959579263L-122.02364015595187,114.61948079503634L-100.72203470534085,144.62304979022565z" style="fill:rgb(54,37,179)"/><path d="M-77.20422710579926,36.446484951411186L-129.4251361732724,110.41052316361491L-122.02364015595187,114.61948079503634z" style="fill:rgb(83,212,212)"/><path d="M164.64082373705847,-37.006108739208365L177.01646320766238,-10.560233463497658L165.13971581961943,-45.36262800332176z" style="fill:rgb(245,143,172)"/><path d="M153.5751355411068,-89.3319675806486L163.4007981787607,-28.437242432967654L164.64082373705847,-37.006108739208365zM151.57541950395762,-92.27262061358684L162.44405654750184,-24.23624686858897L163.4007981787607,-28.437242432967654z" style="fill:rgb(83,212,212)"/><path d="M89.24180386368485,121.17091345263403L58.80840005421648,-134.75006642228797L73.28024251735546,88.29281689258379z" style="fill:rgb(247,158,158)"/><path d="M-77.20422710579926,36.446484951411186L-122.02364015595187,114.61948079503634L-114.03029467104075,118.33326807297867z" style="fill:rgb(83,212,212)"/><path d="M175.5044671169728,6.314872033962498L161.4093281301317,-19.692793703176335L173.6605385683271,15.009970343533698z" style="fill:rgb(242,131,182)"/><path d="M-129.4251361732724,110.41052316361491L-100.72203470534085,144.62304979022565L-122.02364015595187,114.61948079503634z" style="fill:rgb(48,39,174)"/><path d="M-84.42211322095325,151.70959877293208L-114.03029467104075,118.33326807297867L-92.84163603090074,148.42367959579263z" style="fill:rgb(60,35,184)"/><path d="M163.4007981787607,-28.437242432967654L176.61980252732067,-2.2208115710996106L164.64082373705847,-37.006108739208365z" style="fill:rgb(244,137,177)"/><path d="M-77.20422710579926,36.446484951411186L-76.73117720617185,127.69346180503513L67.53820568573771,-0.2045849012234356zM-77.20422710579926,36.446484951411186L-114.03029467104075,118.33326807297867L-105.47134992735508,121.52305338693803z" style="fill:rgb(83,212,212)"/><path d="M106.72660697166388,-10.12770673184604L128.05403176663523,90.10380862485026L120.53739954194756,23.702398561236357z" style="fill:rgb(247,158,158)"/><path d="M173.6605385683271,15.009970343533698L158.660283993858,-10.812096202249672L171.08206351213565,23.825214458004762z" style="fill:rgb(240,125,187)"/><path d="M-122.02364015595187,114.61948079503634L-92.84163603090074,148.42367959579263L-114.03029467104075,118.33326807297867z" style="fill:rgb(54,37,179)"/><path d="M-6.607532637407273,26.981164828036608L-26.60798437902591,126.36304942230834L-7.415448580265723,157.57957923241673z" style="fill:rgb(247,158,158)"/><path d="M-77.20422710579926,36.446484951411186L-105.47134992735508,121.52305338693803L-96.37755246224906,124.16207425089755z" style="fill:rgb(83,212,212)"/><path d="M161.4093281301317,-19.692793703176335L175.5044671169728,6.314872033962498L163.4007981787607,-28.437242432967654z" style="fill:rgb(242,131,182)"/><path d="M-96.37755246224906,124.16207425089755L-84.42211322095325,151.70959877293208L-75.49418255529343,154.45424255398282z" style="fill:rgb(66,34,189)"/><path d="M-77.20422710579926,36.446484951411186L-96.37755246224906,124.16207425089755L-86.78421853505716,126.22603500992798z" style="fill:rgb(83,212,212)"/><path d="M171.08206351213565,23.825214458004762L155.1520045849749,-1.8368784622365932L167.76741584257312,32.71911155055101z" style="fill:rgb(237,120,191)"/><path d="M-114.03029467104075,118.33326807297867L-84.42211322095325,151.70959877293208L-105.47134992735508,121.52305338693803z" style="fill:rgb(60,35,184)"/><path d="M158.660283993858,-10.812096202249672L173.6605385683271,15.009970343533698L161.4093281301317,-19.692793703176335z" style="fill:rgb(240,125,187)"/><path d="M14.010857135677657,27.276431310909835L-2.8344991086500486,121.51640582101741L15.660801050850246,153.09235010108935zM-10.02256893175233,157.93644652621123L-25.903690990717763,-8.287908360782254L-29.29071603005926,126.7591396147027z" style="fill:rgb(247,158,158)"/><path d="M-86.78421853505716,126.22603500992798L-75.49418255529343,154.45424255398282L-66.09284788030683,156.63342077070888z" style="fill:rgb(73,33,193)"/><path d="M23.068537500587233,19.528498717323718L7.742927360787175,118.54268754424305L25.912446960133792,150.28575980216974z" style="fill:rgb(247,158,158)"/><path d="M-77.20422710579926,36.446484951411186L-86.78421853505716,126.22603500992798L-76.73117720617185,127.69346180503513z" style="fill:rgb(83,212,212)"/><path d="M-84.42211322095325,151.70959877293208L-96.37755246224906,124.16207425089755L-105.47134992735508,121.52305338693803z" style="fill:rgb(66,34,189)"/><path d="M167.76741584257312,32.71911155055101L150.8876050521669,7.188973822075077L163.71950778995463,41.64816536103735z" style="fill:rgb(234,114,195)"/><path d="M-3.009939221564103,156.97655538224652L-19.64791961964833,-2.5630960250420847L-22.07435044602891,125.69366918598581z" style="fill:rgb(247,158,158)"/><path d="M-76.73117720617185,127.69346180503513L-66.09284788030683,156.63342077070888L-56.25737175291081,158.22570110559832z" style="fill:rgb(79,32,198)"/><path d="M155.1520045849749,-1.8368784622365932L171.08206351213565,23.825214458004762L158.660283993858,-10.812096202249672z" style="fill:rgb(237,120,191)"/><path d="M2.7285019252214835,155.92078844945488L-14.412206141645369,-1.7775340062392253L-16.163940478803582,124.54913358259954zM9.18568777215081,154.68403994579694L-8.48414764106889,-2.5671260907333866L-9.511665405680336,123.21192736139379z" style="fill:rgb(247,158,158)"/><path d="M163.71950778995463,41.64816536103735L145.87521733815257,16.219695076352615L158.94610167317143,50.56717211216417z" style="fill:rgb(230,108,199)"/><path d="M28.562883851984573,149.48996042358317L9.256607740729386,-17.468656672523252L10.478933393921213,117.70303203415673z" style="fill:rgb(247,158,158)"/><path d="M162.44405654750184,-24.23624686858897L158.660283993858,-10.812096202249672L161.4093281301317,-19.692793703176335z" style="fill:rgb(83,212,212)"/><path d="M-75.49418255529343,154.45424255398282L-86.78421853505716,126.22603500992798L-96.37755246224906,124.16207425089755z" style="fill:rgb(73,33,193)"/><path d="M21.449311604058007,151.62581604051005L2.7892871698003825,-8.380703370841216L3.1359096119602063,119.95655556911379z" style="fill:rgb(247,158,158)"/><path d="M-66.26262311982484,128.54607425805062L-56.25737175291081,158.22570110559832L-46.03111632811232,159.21271179591812z" style="fill:rgb(86,32,201)"/><path d="M150.8876050521669,7.188973822075077L167.76741584257312,32.71911155055101L155.1520045849749,-1.8368784622365932z" style="fill:rgb(234,114,195)"/><path d="M67.53820568573771,-0.2045849012234356L81.58961106308593,82.83115378603048L106.72660697166388,-10.12770673184604zM162.44405654750184,-24.23624686858897L155.1520045849749,-1.8368784622365932L158.660283993858,-10.812096202249672z" style="fill:rgb(83,212,212)"/><path d="M158.94610167317143,50.56717211216417L140.12828124975763,25.207972694714254L153.4599223441066,59.429549907167385z" style="fill:rgb(226,102,203)"/><path d="M-66.09284788030683,156.63342077070888L-76.73117720617185,127.69346180503513L-86.78421853505716,126.22603500992798z" style="fill:rgb(79,32,198)"/><path d="M106.72660697166388,-10.12770673184604L118.69512752009254,51.430079776291265L162.44405654750184,-24.23624686858897zM67.53820568573771,-0.2045849012234356L-76.73117720617185,127.69346180503513L-66.26262311982484,128.54607425805062z" style="fill:rgb(83,212,212)"/><path d="M-55.42697661561055,128.7691195530075L-46.03111632811232,159.21271179591812L-35.461378556742105,159.57958899611407z" style="fill:rgb(94,32,205)"/><path d="M162.44405654750184,-24.23624686858897L150.8876050521669,7.188973822075077L155.1520045849749,-1.8368784622365932z" style="fill:rgb(83,212,212)"/><path d="M145.87521733815257,16.219695076352615L163.71950778995463,41.64816536103735L150.8876050521669,7.188973822075077z" style="fill:rgb(230,108,199)"/><path d="M153.4599223441066,59.429549907167385L133.66553942624566,34.10532878693281L147.27885472075155,68.18770216194673z" style="fill:rgb(222,96,207)"/><path d="M67.53820568573771,-0.2045849012234356L-66.26262311982484,128.54607425805062L-55.42697661561055,128.7691195530075z" style="fill:rgb(83,212,212)"/><path d="M-56.25737175291081,158.22570110559832L-66.26262311982484,128.54607425805062L-76.73117720617185,127.69346180503513z" style="fill:rgb(86,32,201)"/><path d="M-44.276574270108036,128.35175015593114L-35.461378556742105,159.57958899611407L-24.59912508527491,159.31514546208274z" style="fill:rgb(101,32,208)"/><path d="M128.05403176663523,90.10380862485026L106.72660697166388,-10.12770673184604L113.61749794059868,56.43894884328495z" style="fill:rgb(247,158,158)"/><path d="M162.44405654750184,-24.23624686858897L145.87521733815257,16.219695076352615L150.8876050521669,7.188973822075077zM67.53820568573771,-0.2045849012234356L-55.42697661561055,128.7691195530075L-44.276574270108036,128.35175015593114z" style="fill:rgb(83,212,212)"/><path d="M147.27885472075155,68.18770216194673L126.51125484629455,42.86253609353882L140.42599156765812,76.79342797430981z" style="fill:rgb(217,91,210)"/><path d="M140.12828124975763,25.207972694714254L158.94610167317143,50.56717211216417L145.87521733815257,16.219695076352615z" style="fill:rgb(226,102,203)"/><path d="M162.44405654750184,-24.23624686858897L140.12828124975763,25.207972694714254L145.87521733815257,16.219695076352615z" style="fill:rgb(83,212,212)"/><path d="M-32.86735668466167,127.28722176096832L-24.59912508527491,159.31514546208274L-13.498637010142792,158.41224704934325z" style="fill:rgb(108,33,211)"/><path d="M67.53820568573771,-0.2045849012234356L-44.276574270108036,128.35175015593114L-32.86735668466167,127.28722176096832z" style="fill:rgb(83,212,212)"/><path d="M-46.03111632811232,159.21271179591812L-55.42697661561055,128.7691195530075L-66.26262311982484,128.54607425805062z" style="fill:rgb(94,32,205)"/><path d="M140.42599156765812,76.79342797430981L118.69512752009254,51.430079776291265L132.92959766816688,85.19839077734552z" style="fill:rgb(212,85,213)"/><path d="M133.66553942624566,34.10532878693281L153.4599223441066,59.429549907167385L140.12828124975763,25.207972694714254z" style="fill:rgb(222,96,207)"/><path d="M67.53820568573771,-0.2045849012234356L-32.86735668466167,127.28722176096832L-21.25844609498457,125.57320586637691zM162.44405654750184,-24.23624686858897L133.66553942624566,34.10532878693281L140.12828124975763,25.207972694714254z" style="fill:rgb(83,212,212)"/><path d="M-21.25844609498457,125.57320586637691L-13.498637010142792,158.41224704934325L-2.217137887168053,156.86803869782298z" style="fill:rgb(116,34,214)"/><path d="M132.92959766816688,85.19839077734552L110.25221418471259,59.75865042162902L124.82306109719777,93.35457055068656z" style="fill:rgb(206,80,215)"/><path d="M67.53820568573771,-0.2045849012234356L-21.25844609498457,125.57320586637691L-9.511665405680336,123.21192736139379z" style="fill:rgb(83,212,212)"/><path d="M-35.461378556742105,159.57958899611407L-44.276574270108036,128.35175015593114L-55.42697661561055,128.7691195530075z" style="fill:rgb(101,32,208)"/><path d="M162.44405654750184,-24.23624686858897L126.51125484629455,42.86253609353882L133.66553942624566,34.10532878693281z" style="fill:rgb(83,212,212)"/><path d="M-9.511665405680336,123.21192736139379L-2.217137887168053,156.86803869782298L9.18568777215081,154.68403994579694z" style="fill:rgb(123,36,216)"/><path d="M118.69512752009254,51.430079776291265L106.72660697166388,-10.12770673184604L110.25221418471259,59.75865042162902zM67.53820568573771,-0.2045849012234356L-9.511665405680336,123.21192736139379L2.3090090219264052,120.21032998068937z" style="fill:rgb(83,212,212)"/><path d="M126.51125484629455,42.86253609353882L147.27885472075155,68.18770216194673L133.66553942624566,34.10532878693281z" style="fill:rgb(217,91,210)"/><path d="M124.82306109719777,93.35457055068656L101.22276611547598,67.79964464979624L116.1447142048373,101.21472922135706z" style="fill:rgb(200,75,217)"/><path d="M67.53820568573771,-0.2045849012234356L2.3090090219264052,120.21032998068937L14.138048099670153,116.58007181513607zM162.44405654750184,-24.23624686858897L118.69512752009254,51.430079776291265L126.51125484629455,42.86253609353882zM106.72660697166388,-10.12770673184604L101.22276611547598,67.79964464979624L110.25221418471259,59.75865042162902z" style="fill:rgb(83,212,212)"/><path d="M2.3090090219264052,120.21032998068937L9.18568777215081,154.68403994579694L20.64821048242793,151.8663517950131z" style="fill:rgb(131,38,218)"/><path d="M-24.59912508527491,159.31514546208274L-32.86735668466167,127.28722176096832L-44.276574270108036,128.35175015593114z" style="fill:rgb(108,33,211)"/><path d="M67.53820568573771,-0.2045849012234356L14.138048099670153,116.58007181513607L25.909013252077354,112.3375792561945z" style="fill:rgb(83,212,212)"/><path d="M116.1447142048373,101.21472922135706L91.65196759542243,75.50568708107816L106.93762274510314,108.73298373755989z" style="fill:rgb(194,70,219)"/><path d="M67.53820568573771,-0.2045849012234356L71.08964008023565,89.73268040335978L81.58961106308593,82.83115378603048zM67.53820568573771,-0.2045849012234356L25.909013252077354,112.3375792561945L37.555224104140464,107.50392877336336zM106.72660697166388,-10.12770673184604L91.65196759542243,75.50568708107816L101.22276611547598,67.79964464979624zM67.53820568573771,-0.2045849012234356L60.20968716696744,96.16965677823663L71.08964008023565,89.73268040335978zM67.53820568573771,-0.2045849012234356L37.555224104140464,107.50392877336336L49.01047204381292,102.10467523850191zM67.53820568573771,-0.2045849012234356L49.01047204381292,102.10467523850191L60.20968716696744,96.16965677823663z" style="fill:rgb(83,212,212)"/><path d="M14.138048099670153,116.58007181513607L20.64821048242793,151.8663517950131L32.10742287477665,148.42571663956164z" style="fill:rgb(138,40,220)"/><path d="M118.69512752009254,51.430079776291265L140.42599156765812,76.79342797430981L126.51125484629455,42.86253609353882z" style="fill:rgb(212,85,213)"/><path d="M91.65196759542243,75.50568708107816L97.24920770924639,115.86521093079354L106.93762274510314,108.73298373755989z" style="fill:rgb(188,65,220)"/><path d="M106.72660697166388,-10.12770673184604L81.58961106308593,82.83115378603048L91.65196759542243,75.50568708107816z" style="fill:rgb(83,212,212)"/><path d="M25.909013252077354,112.3375792561945L32.10742287477665,148.42571663956164L43.49955232139159,144.37742656399135z" style="fill:rgb(146,43,221)"/><path d="M81.58961106308593,82.83115378603048L87.13090109000568,122.56959790992632L97.24920770924639,115.86521093079354z" style="fill:rgb(181,61,221)"/><path d="M-13.498637010142792,158.41224704934325L-21.25844609498457,125.57320586637691L-32.86735668466167,127.28722176096832z" style="fill:rgb(116,34,214)"/><path d="M37.555224104140464,107.50392877336336L43.49955232139159,144.37742656399135L54.76069366962326,139.74137884854102z" style="fill:rgb(153,46,222)"/><path d="M71.08964008023565,89.73268040335978L76.63767125121022,128.80708293223668L87.13090109000568,122.56959790992632z" style="fill:rgb(175,57,222)"/><path d="M49.01047204381292,102.10467523850191L54.76069366962326,139.74137884854102L65.82746727184954,134.54178768621642z" style="fill:rgb(160,49,222)"/><path d="M60.20968716696744,96.16965677823663L65.82746727184954,134.54178768621642L76.63767125121022,128.80708293223668z" style="fill:rgb(168,53,222)"/><path d="M110.25221418471259,59.75865042162902L132.92959766816688,85.19839077734552L118.69512752009254,51.430079776291265z" style="fill:rgb(206,80,215)"/><path d="M-2.217137887168053,156.86803869782298L-9.511665405680336,123.21192736139379L-21.25844609498457,125.57320586637691z" style="fill:rgb(123,36,216)"/><path d="M101.22276611547598,67.79964464979624L124.82306109719777,93.35457055068656L110.25221418471259,59.75865042162902z" style="fill:rgb(200,75,217)"/><path d="M9.18568777215081,154.68403994579694L2.3090090219264052,120.21032998068937L-9.511665405680336,123.21192736139379z" style="fill:rgb(131,38,218)"/><path d="M91.65196759542243,75.50568708107816L116.1447142048373,101.21472922135706L101.22276611547598,67.79964464979624z" style="fill:rgb(194,70,219)"/><path d="M20.64821048242793,151.8663517950131L14.138048099670153,116.58007181513607L2.3090090219264052,120.21032998068937z" style="fill:rgb(138,40,220)"/><path d="M97.24920770924639,115.86521093079354L91.65196759542243,75.50568708107816L81.58961106308593,82.83115378603048z" style="fill:rgb(188,65,220)"/><path d="M32.10742287477665,148.42571663956164L25.909013252077354,112.3375792561945L14.138048099670153,116.58007181513607z" style="fill:rgb(146,43,221)"/><path d="M87.13090109000568,122.56959790992632L81.58961106308593,82.83115378603048L71.08964008023565,89.73268040335978z" style="fill:rgb(181,61,221)"/><path d="M43.49955232139159,144.37742656399135L37.555224104140464,107.50392877336336L25.909013252077354,112.3375792561945z" style="fill:rgb(153,46,222)"/><path d="M76.63767125121022,128.80708293223668L71.08964008023565,89.73268040335978L60.20968716696744,96.16965677823663z" style="fill:rgb(175,57,222)"/><path d="M54.76069366962326,139.74137884854102L49.01047204381292,102.10467523850191L37.555224104140464,107.50392877336336z" style="fill:rgb(160,49,222)"/><path d="M65.82746727184954,134.54178768621642L60.20968716696744,96.16965677823663L49.01047204381292,102.10467523850191z" style="fill:rgb(168,53,222)"/></svg>
