<?xml version="1.0" encoding="UTF-8"?>
<!-- Generated by jsxcad -->
<!DOCTYPE svg PUBLIC "-//W3C//DTD SVG 1.1 Tiny//EN" "http://www.w3.org/Graphics/SVG/1.1/DTD/svg11-tiny.dtd">
<svg viewBox="-250 -250 500 500" width="500" height="500" xmlns="http://www.w3.org/2000/svg"><path d="M-67.44492444156204,-99.91706104271319L-54.74751903259475,-0.7891435916125673L-51.15253739591244,-69.10197657560141zM-17.71064935743099,-122.52653273408528L-2.984648483461973,4.143859999436087L-2.7129728059503924,-91.00030076116505z" style="fill:rgb(247,158,158)"/><path d="M-116.1340873846413,-63.318893708532265L-114.90256085158855,-20.302792995398846L-109.17250245920683,-69.78213275170114z" style="fill:rgb(83,212,212)"/><path d="M-24.25728724460566,-23.839113672358828L-6.838452160353372,-89.57719581382538L-21.939504910851245,-121.03992142748318zM-27.926232456999625,-19.43215478394613L-9.99991715458024,-88.48663677547678L-25.180072432258317,-119.90074155190872zM-14.080342224710899,-30.809453400505895L2.0993060968022372,-92.49329550238014L-12.780253867762204,-124.09473455792977z" style="fill:rgb(247,158,158)"/><path d="M-122.75853549357831,-56.64426712786651L-114.90256085158855,-20.302792995398846L-116.1340873846413,-63.318893708532265z" style="fill:rgb(83,212,212)"/><path d="M-30.297321404764823,-14.778449190671246L-11.986165188027309,-87.74606121634763L-27.21688256411509,-119.12998544494589zM-8.236151356293504,-32.924497281644214L7.274972323265966,-94.0545413276744L-7.477942882226579,-125.73725764825866zM-2.3842077895046305,-33.91981743927769L12.46560361785349,-95.39693765802683L-2.1634859442926,-127.16267957218858z" style="fill:rgb(247,158,158)"/><path d="M-129.0237576344547,-49.77461213773848L-114.90256085158855,-20.302792995398846L-122.75853549357831,-56.64426712786651z" style="fill:rgb(83,212,212)"/><path d="M3.093596723614098,-33.72383083902059L17.31633885196036,-96.6098662401854L2.802691735541816,-128.4535681638271z" style="fill:rgb(247,158,158)"/><path d="M-134.9077220884555,-42.7270766568249L-114.90256085158855,-20.302792995398846L-129.0237576344547,-49.77461213773848z" style="fill:rgb(83,212,212)"/><path d="M7.833208348282128,-32.33894408672882L21.495473902734805,-97.51074290692247L7.079348992237995,-129.42260399991667zM-54.74751903259475,-0.7891435916125673L-67.44492444156204,-99.91706104271319L-72.32595996955817,-31.80179652557291z" style="fill:rgb(247,158,158)"/><path d="M-140.38849130364534,-35.51962533135529L-114.90256085158855,-20.302792995398846L-134.9077220884555,-42.7270766568249z" style="fill:rgb(83,212,212)"/><path d="M11.510692998125519,-29.84412739943287L24.70967533677581,-98.20361706978309L10.36876872311838,-130.1679420587072zM13.86437726697619,-26.39354780361763L26.73509908823385,-98.58434227118109L12.440826852294705,-130.58211371170268z" style="fill:rgb(247,158,158)"/><path d="M-145.44429324263214,-28.17109934467588L-114.90256085158855,-20.302792995398846L-140.38849130364534,-35.51962533135529zM-61.56734097511533,-103.29016830783043L151.57541950395762,-92.27262061358684L-52.869423704985515,-107.86966095121137zM-52.869423704985515,-107.86966095121137L151.57541950395762,-92.27262061358684L-44.013691212327025,-112.12875264515884zM-70.08459601117876,-98.40216735581325L151.57541950395762,-92.27262061358684L-61.56734097511533,-103.29016830783043zM-44.013691212327025,-112.12875264515884L151.57541950395762,-92.27262061358684L-35.023194455123,-116.0559510751772zM-78.39854463897285,-93.21796533092031L151.57541950395762,-92.27262061358684L-70.08459601117876,-98.40216735581325zM-35.023194455123,-116.0559510751772L151.57541950395762,-92.27262061358684L-25.92125584435822,-119.64019407053796zM-150.05350828543666,-20.7012722098766L-114.90256085158855,-20.302792995398846L-145.44429324263214,-28.17109934467588zM-86.48666769100208,-87.75032992940822L151.57541950395762,-92.27262061358684L-78.39854463897285,-93.21796533092031zM-25.92125584435822,-119.64019407053796L151.57541950395762,-92.27262061358684L-16.731508766822373,-122.870732802865zM-94.32656445910489,-82.01252072560288L151.57541950395762,-92.27262061358684L-86.48666769100208,-87.75032992940822zM-16.731508766822373,-122.870732802865L151.57541950395762,-92.27262061358684L-7.477942882226579,-125.73725764825866zM-101.89593153496887,-76.01834173673419L151.57541950395762,-92.27262061358684L-94.32656445910489,-82.01252072560288z" style="fill:rgb(83,212,212)"/><path d="M-72.32595996955817,-31.80179652557291L-96.289671915287,10.05831828201477L-54.74751903259475,-0.7891435916125673z" style="fill:rgb(127,37,217)"/><path d="M-7.477942882226579,-125.73725764825866L151.57541950395762,-92.27262061358684L1.8150478445437408,-128.2297847166809zM-154.19480508298244,-13.130899371459606L-114.90256085158855,-20.302792995398846L-150.05350828543666,-20.7012722098766zM-109.17250245920683,-69.78213275170114L151.57541950395762,-92.27262061358684L-101.89593153496887,-76.01834173673419zM1.8150478445437408,-128.2297847166809L151.57541950395762,-92.27262061358684L11.12262099589583,-130.3387527724663zM-114.90256085158855,-20.302792995398846L-154.19480508298244,-13.130899371459606L-156.0805718228907,-9.181518376649047z" style="fill:rgb(83,212,212)"/><path d="M2.0993060968022372,-92.49329550238014L-14.080342224710899,-30.809453400505895L2.3064996852672364,1.1322521629139055z" style="fill:rgb(247,158,158)"/><path d="M11.12262099589583,-130.3387527724663L151.57541950395762,-92.27262061358684L20.419440335285298,-132.0550304331725z" style="fill:rgb(83,212,212)"/><path d="M-6.838452160353372,-89.57719581382538L-24.25728724460566,-23.839113672358828L-7.53933989077712,7.948144528464434zM7.274972323265966,-94.0545413276744L-8.236151356293504,-32.924497281644214L7.990610531299331,-0.8921529308065387z" style="fill:rgb(247,158,158)"/><path d="M-96.289671915287,10.05831828201477L-72.32595996955817,-31.80179652557291L-114.90256085158855,-20.302792995398846z" style="fill:rgb(127,37,217)"/><path d="M-9.99991715458024,-88.48663677547678L-27.926232456999625,-19.43215478394613L-11.057897458934717,12.30058860921366z" style="fill:rgb(247,158,158)"/><path d="M20.419440335285298,-132.0550304331725L151.57541950395762,-92.27262061358684L29.679629929918836,-133.36988133480773z" style="fill:rgb(83,212,212)"/><path d="M12.46560361785349,-95.39693765802683L-2.3842077895046305,-33.91981743927769L13.699373599475372,-1.7953207378095306zM-11.986165188027309,-87.74606121634763L-30.297321404764823,-14.778449190671246L-13.302064142673812,16.91955818417692z" style="fill:rgb(247,158,158)"/><path d="M29.679629929918836,-133.36988133480773L151.57541950395762,-92.27262061358684L38.87675380626768,-134.27507790517424z" style="fill:rgb(83,212,212)"/><path d="M17.31633885196036,-96.6098662401854L3.093596723614098,-33.72383083902059L19.05984175073428,-1.5118020130795178z" style="fill:rgb(247,158,158)"/><path d="M38.87675380626768,-134.27507790517424L151.57541950395762,-92.27262061358684L47.98376026564542,-134.76294722640785z" style="fill:rgb(83,212,212)"/><path d="M21.495473902734805,-97.51074290692247L7.833208348282128,-32.33894408672882L23.715639905624045,-0.05013478710618775zM-2.984648483461973,4.143859999436087L-17.71064935743099,-122.52653273408528L-19.53864990219288,-27.714457281822273zM-129.60191838628688,110.2888029149163L-91.76492907985246,-39.33739484795796L-109.3519289299616,-69.61554997627522z" style="fill:rgb(247,158,158)"/><path d="M47.98376026564542,-134.76294722640785L151.57541950395762,-92.27262061358684L56.972976509790385,-134.8263441016273z" style="fill:rgb(83,212,212)"/><path d="M24.70967533677581,-98.20361706978309L11.510692998125519,-29.84412739943287L27.34881281027951,2.505006186436115z" style="fill:rgb(247,158,158)"/><path d="M56.972976509790385,-134.8263441016273L151.57541950395762,-92.27262061358684L65.81609773564078,-134.45884421932018zM-109.17250245920683,-69.78213275170114L-114.90256085158855,-20.302792995398846L151.57541950395762,-92.27262061358684z" style="fill:rgb(83,212,212)"/><path d="M26.73509908823385,-98.58434227118109L13.86437726697619,-26.39354780361763L29.701502190401953,5.994700535016225z" style="fill:rgb(247,158,158)"/><path d="M65.81609773564078,-134.45884421932018L151.57541950395762,-92.27262061358684L74.48415573084304,-133.65472201811716z" style="fill:rgb(83,212,212)"/><path d="M104.6595622814626,-79.60168097770816L111.84884620974415,-94.98727054979555L99.33575870573601,-128.5118476354224z" style="fill:rgb(247,158,158)"/><path d="M-160.99005171452185,2.2233335122494946L-168.08600500118263,48.21059824949214L-157.84716788832932,-5.481751802253599zM-157.84716788832932,-5.481751802253599L-166.39784951165862,59.031723568433286L-156.0805718228907,-9.181518376649047zM74.48415573084304,-133.65472201811716L151.57541950395762,-92.27262061358684L82.94755420506601,-132.4090824687101zM-163.60345884861235,9.960431312450309L-168.08600500118263,48.21059824949214L-160.99005171452185,2.2233335122494946zM82.94755420506601,-132.4090824687101L151.57541950395762,-92.27262061358684L91.17606149679317,-130.71794362221578zM-165.6680814870028,17.704500647246256L-168.38993531466917,40.71134563044136L-163.60345884861235,9.960431312450309z" style="fill:rgb(83,212,212)"/><path d="M111.84884620974415,-94.98727054979555L104.6595622814626,-79.60168097770816L117.66259397394965,-45.80877447814733z" style="fill:rgb(247,158,158)"/><path d="M-156.0805718228907,-9.181518376649047L-122.5836459484379,47.93727421484247L-114.90256085158855,-20.302792995398846z" style="fill:rgb(83,212,212)"/><path d="M-35.368088708293115,127.52055058239442L-12.663511545536423,-87.48269363278072L-27.911641707933747,-118.85639619704914z" style="fill:rgb(247,158,158)"/><path d="M-168.07815165213074,33.10778991711644L-165.6680814870028,17.704500647246256L-167.1654591827109,25.42938233180706zM91.17606149679317,-130.71794362221578L151.57541950395762,-92.27262061358684L99.1388709836718,-128.57836301027035z" style="fill:rgb(83,212,212)"/><path d="M-14.080342224710899,-30.809453400505895L-2.984648483461973,4.143859999436087L2.3064996852672364,1.1322521629139055z" style="fill:rgb(173,56,222)"/><path d="M-8.236151356293504,-32.924497281644214L2.3064996852672364,1.1322521629139055L7.990610531299331,-0.8921529308065387z" style="fill:rgb(143,42,220)"/><path d="M-2.984648483461973,4.143859999436087L-24.25728724460566,-23.839113672358828L-7.53933989077712,7.948144528464434z" style="fill:rgb(200,74,217)"/><path d="M-2.3842077895046305,-33.91981743927769L7.990610531299331,-0.8921529308065387L13.699373599475372,-1.7953207378095306z" style="fill:rgb(111,34,212)"/><path d="M-165.6680814870028,17.704500647246256L-168.07815165213074,33.10778991711644L-168.38993531466917,40.71134563044136z" style="fill:rgb(83,212,212)"/><path d="M-7.53933989077712,7.948144528464434L-27.926232456999625,-19.43215478394613L-11.057897458934717,12.30058860921366z" style="fill:rgb(222,97,206)"/><path d="M99.1388709836718,-128.57836301027035L151.57541950395762,-92.27262061358684L106.80463652226572,-125.98856786928947z" style="fill:rgb(83,212,212)"/><path d="M3.093596723614098,-33.72383083902059L13.699373599475372,-1.7953207378095306L19.05984175073428,-1.5118020130795178z" style="fill:rgb(81,32,199)"/><path d="M-163.60345884861235,9.960431312450309L-168.38993531466917,40.71134563044136L-168.08600500118263,48.21059824949214zM-157.84716788832932,-5.481751802253599L-168.08600500118263,48.21059824949214L-167.15319722093415,55.575087667565114z" style="fill:rgb(83,212,212)"/><path d="M-11.057897458934717,12.30058860921366L-30.297321404764823,-14.778449190671246L-13.302064142673812,16.91955818417692z" style="fill:rgb(238,121,190)"/><path d="M23.715639905624045,-0.05013478710618775L3.093596723614098,-33.72383083902059L19.05984175073428,-1.5118020130795178z" style="fill:rgb(54,37,180)"/><path d="M106.80463652226572,-125.98856786928947L151.57541950395762,-92.27262061358684L114.14155307868567,-122.94801696466105z" style="fill:rgb(83,212,212)"/><path d="M104.6595622814626,-79.60168097770816L72.47471364040253,-34.009337567015834L117.66259397394965,-45.80877447814733z" style="fill:rgb(127,37,217)"/><path d="M16.706523965572693,115.65434181004764L27.426889644330092,-98.70346965247828L13.148397650139243,-130.7127353531469z" style="fill:rgb(247,158,158)"/><path d="M-51.15253739591244,-69.10197657560141L-58.3356534298162,67.39358230349195L-63.05778156738492,157.12477951912712z" style="fill:rgb(255,127,127)"/><path d="M-14.080342224710899,-30.809453400505895L-73.48964103386396,-15.562525080026383L-73.52995260119839,-14.99997373905329zM-157.84716788832932,-5.481751802253599L-167.15319722093415,55.575087667565114L-166.39784951165862,59.031723568433286z" style="fill:rgb(83,212,212)"/><path d="M-13.302064142673812,16.91955818417692L-31.20055714606118,-10.18360566608164L-14.11073734731683,21.50159023915704z" style="fill:rgb(246,146,169)"/><path d="M-2.984648483461973,4.143859999436087L-14.080342224710899,-30.809453400505895L-19.53864990219288,-27.714457281822273z" style="fill:rgb(173,56,222)"/><path d="M2.3064996852672364,1.1322521629139055L-8.236151356293504,-32.924497281644214L-14.080342224710899,-30.809453400505895z" style="fill:rgb(143,42,220)"/><path d="M59.19660275389704,-50.86631020808801L-72.32595996955817,-31.80179652557291L-73.48964103386396,-15.562525080026383zM-19.53864990219288,-27.714457281822273L-73.52995260119839,-14.99997373905329L-73.64839532381114,-13.3470954998738z" style="fill:rgb(83,212,212)"/><path d="M-24.25728724460566,-23.839113672358828L-2.984648483461973,4.143859999436087L-19.53864990219288,-27.714457281822273z" style="fill:rgb(200,74,217)"/><path d="M27.34881281027951,2.505006186436115L7.833208348282128,-32.33894408672882L23.715639905624045,-0.05013478710618775z" style="fill:rgb(32,48,157)"/><path d="M7.990610531299331,-0.8921529308065387L-2.3842077895046305,-33.91981743927769L-8.236151356293504,-32.924497281644214z" style="fill:rgb(111,34,212)"/><path d="M-27.926232456999625,-19.43215478394613L-7.53933989077712,7.948144528464434L-24.25728724460566,-23.839113672358828z" style="fill:rgb(222,97,206)"/><path d="M-24.25728724460566,-23.839113672358828L-73.64839532381114,-13.3470954998738L-73.83759893335885,-10.706743975950971z" style="fill:rgb(83,212,212)"/><path d="M-31.20055714606118,-10.18360566608164L-13.412946209826433,25.73903507058857L-14.11073734731683,21.50159023915704z" style="fill:rgb(246,169,146)"/><path d="M114.14155307868567,-122.94801696466105L151.57541950395762,-92.27262061358684L121.11742941391684,-119.45761621779965z" style="fill:rgb(83,212,212)"/><path d="M13.699373599475372,-1.7953207378095306L3.093596723614098,-33.72383083902059L-2.3842077895046305,-33.91981743927769z" style="fill:rgb(81,32,199)"/><path d="M-156.0805718228907,-9.181518376649047L-166.39784951165862,59.031723568433286L-122.5836459484379,47.93727421484247z" style="fill:rgb(83,212,212)"/><path d="M72.47471364040253,-34.009337567015834L104.6595622814626,-79.60168097770816L58.22845367985397,-67.06166373830597z" style="fill:rgb(127,37,217)"/><path d="M29.701502190401953,5.994700535016225L11.510692998125519,-29.84412739943287L27.34881281027951,2.505006186436115z" style="fill:rgb(16,64,133)"/><path d="M-73.52995260119839,-14.99997373905329L-19.53864990219288,-27.714457281822273L-14.080342224710899,-30.809453400505895zM-73.48964103386396,-15.562525080026383L-14.080342224710899,-30.809453400505895L-8.236151356293504,-32.924497281644214z" style="fill:rgb(83,212,212)"/><path d="M-30.297321404764823,-14.778449190671246L-11.057897458934717,12.30058860921366L-27.926232456999625,-19.43215478394613z" style="fill:rgb(238,121,190)"/><path d="M-27.926232456999625,-19.43215478394613L-73.83759893335885,-10.706743975950971L-74.0856377059083,-7.245341423545351zM-72.32595996955817,-31.80179652557291L59.19660275389704,-50.86631020808801L58.22845367985397,-67.06166373830597zM-73.64839532381114,-13.3470954998738L-24.25728724460566,-23.839113672358828L-19.53864990219288,-27.714457281822273zM121.11742941391684,-119.45761621779965L151.57541950395762,-92.27262061358684L127.69980427548543,-115.51978780182094zM-74.37659350743498,-3.1850287641075363L-27.926232456999625,-19.43215478394613L-74.0856377059083,-7.245341423545351z" style="fill:rgb(83,212,212)"/><path d="M3.093596723614098,-33.72383083902059L23.715639905624045,-0.05013478710618775L7.833208348282128,-32.33894408672882z" style="fill:rgb(54,37,180)"/><path d="M-73.83759893335885,-10.706743975950971L-27.926232456999625,-19.43215478394613L-24.25728724460566,-23.839113672358828z" style="fill:rgb(83,212,212)"/><path d="M-31.20055714606118,-10.18360566608164L-13.302064142673812,16.91955818417692L-30.297321404764823,-14.778449190671246z" style="fill:rgb(246,146,169)"/><path d="M67.72068296282751,91.72588206918014L67.57425988225407,-102.10595779703192L54.17869790433947,-134.8066428049654z" style="fill:rgb(247,158,158)"/><path d="M7.833208348282128,-32.33894408672882L27.34881281027951,2.505006186436115L11.510692998125519,-29.84412739943287z" style="fill:rgb(32,48,157)"/><path d="M127.69980427548543,-115.51978780182094L151.57541950395762,-92.27262061358684L133.85614520326988,-111.13867780273466zM-27.926232456999625,-19.43215478394613L-74.37659350743498,-3.1850287641075363L-30.297321404764823,-14.778449190671246zM-31.20055714606118,-10.18360566608164L-74.37659350743498,-3.1850287641075363L-74.69138044616084,1.2078494340129953z" style="fill:rgb(83,212,212)"/><path d="M-13.412946209826433,25.73903507058857L-31.20055714606118,-10.18360566608164L-30.55775109793981,-5.956251619023737z" style="fill:rgb(246,169,146)"/><path d="M-91.76492907985246,-39.33739484795796L-129.60191838628688,110.2888029149163L-108.21207693988161,140.21281559919112z" style="fill:rgb(247,158,158)"/><path d="M-74.37659350743498,-3.1850287641075363L-31.20055714606118,-10.18360566608164L-30.297321404764823,-14.778449190671246z" style="fill:rgb(83,212,212)"/><path d="M11.510692998125519,-29.84412739943287L29.701502190401953,5.994700535016225L13.86437726697619,-26.39354780361763z" style="fill:rgb(16,64,133)"/><path d="M-2.3842077895046305,-33.91981743927769L59.19660275389704,-50.86631020808801L-8.236151356293504,-32.924497281644214zM-30.55775109793981,-5.956251619023737L-74.69138044616084,1.2078494340129953L-75.00884326375034,5.638070200588517zM133.85614520326988,-111.13867780273466L151.57541950395762,-92.27262061358684L139.55388651395663,-106.3202809353919zM3.093596723614098,-33.72383083902059L59.230159162730644,-50.304971310082216L-2.3842077895046305,-33.91981743927769zM-74.69138044616084,1.2078494340129953L-30.55775109793981,-5.956251619023737L-31.20055714606118,-10.18360566608164zM-28.392100185528424,-2.38832839880933L-75.00884326375034,5.638070200588517L-75.30711021910294,9.800411083685802zM7.833208348282128,-32.33894408672882L59.32876111365579,-48.6555418527332L3.093596723614098,-33.72383083902059zM59.19660275389704,-50.86631020808801L-2.3842077895046305,-33.91981743927769L59.230159162730644,-50.304971310082216zM139.55388651395663,-106.3202809353919L151.57541950395762,-92.27262061358684L144.76075327132614,-101.07255780454531zM-75.00884326375034,5.638070200588517L-28.392100185528424,-2.38832839880933L-30.55775109793981,-5.956251619023737zM59.230159162730644,-50.304971310082216L3.093596723614098,-33.72383083902059L59.32876111365579,-48.6555418527332zM11.510692998125519,-29.84412739943287L59.486292615076906,-46.0203311462625L7.833208348282128,-32.33894408672882zM-24.832072806620264,0.2656620324648857L-75.30711021910294,9.800411083685802L-75.56513742468563,13.401202162014883zM59.32876111365579,-48.6555418527332L7.833208348282128,-32.33894408672882L59.486292615076906,-46.0203311462625zM-75.76433070583045,16.18096220852593L-24.832072806620264,0.2656620324648857L-75.56513742468563,13.401202162014883zM144.76075327132614,-101.07255780454531L151.57541950395762,-92.27262061358684L149.44489174275188,-95.40565040960723zM-75.30711021910294,9.800411083685802L-24.832072806620264,0.2656620324648857L-28.392100185528424,-2.38832839880933zM13.86437726697619,-26.39354780361763L59.69285143024584,-42.564979874145926L11.510692998125519,-29.84412739943287zM-165.58022746236236,62.773425130090864L-77.21675455788548,36.44965650568155L-166.39784951165862,59.031723568433286zM59.486292615076906,-46.0203311462625L11.510692998125519,-29.84412739943287L59.69285143024584,-42.564979874145926zM-14.539270469302036,2.12003957819323L-75.76433070583045,16.18096220852593L-75.89008726624306,17.935905674488225z" style="fill:rgb(83,212,212)"/><path d="M77.38632992727433,34.24239696808183L67.57425988225407,-102.10595779703192L83.88163618947632,124.5010598682971z" style="fill:rgb(127,127,127)"/><path d="M-8.514642381577218,1.1657552665204423L-75.89008726624306,17.935905674488225L-75.93307606580352,18.53581801823112zM-24.832072806620264,0.2656620324648857L-75.76433070583045,16.18096220852593L-20.1078680541609,1.8089209328205451zM14.7154310621487,-22.21028004140871L59.93520955796907,-38.51077373173241L13.86437726697619,-26.39354780361763zM-77.21675455788548,36.44965650568155L-165.58022746236236,62.773425130090864L-163.3579335196525,69.77339179604785zM59.69285143024584,-42.564979874145926L13.86437726697619,-26.39354780361763L59.93520955796907,-38.51077373173241z" style="fill:rgb(83,212,212)"/><path d="M160.05435118033805,-76.02619378259156L174.04605526576898,-34.07137650159234L171.73469876408228,-41.30966995516773z" style="fill:rgb(246,166,149)"/><path d="M-75.76433070583045,16.18096220852593L-14.539270469302036,2.12003957819323L-20.1078680541609,1.8089209328205451zM-75.89008726624306,17.935905674488225L-8.514642381577218,1.1657552665204423L-14.539270469302036,2.12003957819323z" style="fill:rgb(83,212,212)"/><path d="M-126.38739444594496,124.8681566998447L-152.74134948479775,89.25134706994218L-131.2592604901621,118.95091036632678z" style="fill:rgb(28,51,152)"/><path d="M59.93520955796907,-38.51077373173241L14.7154310621487,-22.21028004140871L60.19749050150527,-34.123295489051635zM-77.21675455788548,36.44965650568155L-163.3579335196525,69.77339179604785L-160.47958613865336,76.54207591550458zM60.46207705647834,-29.697248603605885L14.7154310621487,-22.21028004140871L13.984874488752158,-17.57444845576155zM14.7154310621487,-22.21028004140871L60.46207705647834,-29.697248603605885L60.19749050150527,-34.123295489051635z" style="fill:rgb(83,212,212)"/><path d="M162.34701789403888,-68.83154837781035L175.71127766198677,-26.515792625577827L174.04605526576898,-34.07137650159234z" style="fill:rgb(247,161,155)"/><path d="M60.71073468456289,-25.537663395514258L13.984874488752158,-17.57444845576155L11.70463152226471,-12.805647618399277zM-77.21675455788548,36.44965650568155L61.23280619752183,-16.80436819453329L-75.93307606580352,18.53581801823112zM-77.21675455788548,36.44965650568155L-160.47958613865336,76.54207591550458L-156.9410949664688,83.04600380068032zM13.984874488752158,-17.57444845576155L60.71073468456289,-25.537663395514258L60.46207705647834,-29.697248603605885z" style="fill:rgb(83,212,212)"/><path d="M-120.88560404931717,130.4268153006888L-147.8824160813647,95.12414256332967L-126.38739444594496,124.8681566998447z" style="fill:rgb(32,47,158)"/><path d="M60.92589995310864,-21.93834571211892L11.70463152226471,-12.805647618399277L8.020335394820133,-8.240312545604187z" style="fill:rgb(83,212,212)"/><path d="M174.04605526576898,-34.07137650159234L160.05435118033805,-76.02619378259156L162.34701789403888,-68.83154837781035z" style="fill:rgb(246,166,149)"/><path d="M61.092038922531245,-19.15914414294338L8.020335394820133,-8.240312545604187L3.184243629179827,-4.2057474273803965z" style="fill:rgb(83,212,212)"/><path d="M-77.21675455788548,36.44965650568155L-63.05778156738492,157.12477951912712L-58.3356534298162,67.39358230349195z" style="fill:rgb(247,158,158)"/><path d="M11.70463152226471,-12.805647618399277L60.92589995310864,-21.93834571211892L60.71073468456289,-25.537663395514258zM61.23280619752183,-16.80436819453329L-2.4621503427919706,-0.99336828183527L-8.514642381577218,1.1657552665204423zM61.19694283247763,-17.4042944910533L3.184243629179827,-4.2057474273803965L-2.4621503427919706,-0.99336828183527zM-77.21675455788548,36.44965650568155L-156.9410949664688,83.04600380068032L-152.74134948479775,89.25134706994218z" style="fill:rgb(83,212,212)"/><path d="M-152.74134948479775,89.25134706994218L-126.38739444594496,124.8681566998447L-147.8824160813647,95.12414256332967z" style="fill:rgb(28,51,152)"/><path d="M8.020335394820133,-8.240312545604187L61.092038922531245,-19.15914414294338L60.92589995310864,-21.93834571211892z" style="fill:rgb(83,212,212)"/><path d="M175.71127766198677,-26.515792625577827L164.91154893187604,-53.472747969285855L176.7080058585158,-18.66910330817536z" style="fill:rgb(247,155,161)"/><path d="M104.6595622814626,-79.60168097770816L162.44405654750184,-24.23624686858897L151.57541950395762,-92.27262061358684z" style="fill:rgb(83,212,212)"/><path d="M-12.663511545536423,-87.48269363278072L-35.368088708293115,127.52055058239442L-15.931431259519616,158.6101339973655z" style="fill:rgb(247,158,158)"/><path d="M-114.76410161681063,135.593713741437L-142.36987116585868,100.63049369705611L-120.88560404931717,130.4268153006888z" style="fill:rgb(37,44,163)"/><path d="M3.184243629179827,-4.2057474273803965L61.19694283247763,-17.4042944910533L61.092038922531245,-19.15914414294338z" style="fill:rgb(83,212,212)"/><path d="M-20.1078680541609,1.8089209328205451L-3.4212093831622363,157.032847197925L-3.068936151404352,33.66243659039149z" style="fill:rgb(247,158,158)"/><path d="M-77.21675455788548,36.44965650568155L-152.74134948479775,89.25134706994218L-147.8824160813647,95.12414256332967zM-2.4621503427919706,-0.99336828183527L61.23280619752183,-16.80436819453329L61.19694283247763,-17.4042944910533z" style="fill:rgb(83,212,212)"/><path d="M175.71127766198677,-26.515792625577827L162.34701789403888,-68.83154837781035L163.9738096290938,-61.30519692086723z" style="fill:rgb(247,161,155)"/><path d="M151.57541950395762,-92.27262061358684L163.4007981787607,-28.437242432967654L153.5751355411068,-89.3319675806486zM153.5751355411068,-89.3319675806486L164.64082373705847,-37.006108739208365L157.12126598034948,-82.86634802484294z" style="fill:rgb(83,212,212)"/><path d="M-34.49555903847565,127.43914241708302L-13.412946209826433,25.73903507058857L-30.55775109793981,-5.956251619023737z" style="fill:rgb(247,158,158)"/><path d="M-147.8824160813647,95.12414256332967L-120.88560404931717,130.4268153006888L-142.36987116585868,100.63049369705611z" style="fill:rgb(32,47,158)"/><path d="M176.7080058585158,-18.66910330817536L165.13971581961943,-45.36262800332176L177.01646320766238,-10.560233463497658z" style="fill:rgb(246,149,166)"/><path d="M-77.21675455788548,36.44965650568155L-147.8824160813647,95.12414256332967L-142.36987116585868,100.63049369705611zM157.12126598034948,-82.86634802484294L165.13971581961943,-45.36262800332176L160.05435118033805,-76.02619378259156z" style="fill:rgb(83,212,212)"/><path d="M164.91154893187604,-53.472747969285855L175.71127766198677,-26.515792625577827L163.9738096290938,-61.30519692086723z" style="fill:rgb(247,155,161)"/><path d="M61.23280619752183,-16.80436819453329L-77.21675455788548,36.44965650568155L62.30435692865582,1.1207080957223434z" style="fill:rgb(83,212,212)"/><path d="M-31.9328174860461,127.14924261838581L-11.236759638547564,29.33967878785034L-28.392100185528424,-2.38832839880933z" style="fill:rgb(247,158,158)"/><path d="M-108.03690918819076,140.33630321588186L-136.21302490628025,105.73690610446315L-114.76410161681063,135.593713741437z" style="fill:rgb(42,41,169)"/><path d="M160.05435118033805,-76.02619378259156L164.91154893187604,-53.472747969285855L162.34701789403888,-68.83154837781035z" style="fill:rgb(83,212,212)"/><path d="M-27.843251272510813,126.54542502067342L-7.712534674295872,32.04741064368734L-24.832072806620264,0.2656620324648857zM27.426889644330092,-98.70346965247828L16.706523965572693,115.65434181004764L34.59333833966686,147.54231836470566z" style="fill:rgb(247,158,158)"/><path d="M-77.21675455788548,36.44965650568155L-142.36987116585868,100.63049369705611L-136.21302490628025,105.73690610446315z" style="fill:rgb(83,212,212)"/><path d="M-142.36987116585868,100.63049369705611L-114.76410161681063,135.593713741437L-136.21302490628025,105.73690610446315z" style="fill:rgb(37,44,163)"/><path d="M177.01646320766238,-10.560233463497658L164.64082373705847,-37.006108739208365L176.61980252732067,-2.2208115710996106z" style="fill:rgb(245,143,172)"/><path d="M165.13971581961943,-45.36262800332176L176.7080058585158,-18.66910330817536L164.91154893187604,-53.472747969285855z" style="fill:rgb(246,149,166)"/><path d="M-100.72203470534085,144.62304979022565L-129.4251361732724,110.41052316361491L-108.03690918819076,140.33630321588186z" style="fill:rgb(48,39,174)"/><path d="M162.34701789403888,-68.83154837781035L164.91154893187604,-53.472747969285855L163.9738096290938,-61.30519692086723z" style="fill:rgb(83,212,212)"/><path d="M15.809624493283332,115.97760432109665L29.951747215652162,14.816962007722697L13.984874488752158,-17.57444845576155zM-16.2457564754929,124.56558469547727L2.379366658354113,34.05899683691554L-14.539270469302036,2.12003957819323z" style="fill:rgb(247,158,158)"/><path d="M-77.21675455788548,36.44965650568155L-136.21302490628025,105.73690610446315L-129.4251361732724,110.41052316361491zM160.05435118033805,-76.02619378259156L165.13971581961943,-45.36262800332176L164.91154893187604,-53.472747969285855z" style="fill:rgb(83,212,212)"/><path d="M13.180693639307085,116.87387877960084L27.795460520840255,19.548935963574195L11.70463152226471,-12.805647618399277z" style="fill:rgb(247,158,158)"/><path d="M162.44405654750184,-24.23624686858897L104.6595622814626,-79.60168097770816L112.0743126022052,-11.481830023717533z" style="fill:rgb(83,212,212)"/><path d="M-9.511665405680336,123.21192736139379L8.252480030868446,33.198243551870775L-8.514642381577218,1.1657552665204423zM67.57425988225407,-102.10595779703192L67.72068296282751,91.72588206918014L83.88163618947632,124.5010598682971zM9.001811589362807,118.15634688181153L24.264752442193505,24.05474721208368L8.020335394820133,-8.240312545604187zM-2.752102480752087,121.49548732763054L14.133420800540476,31.134253135601973L-2.4621503427919706,-0.99336828183527zM3.5651283850946958,119.82483160869538L19.601117135636418,28.01166139100866L3.184243629179827,-4.2057474273803965z" style="fill:rgb(247,158,158)"/><path d="M157.12126598034948,-82.86634802484294L164.64082373705847,-37.006108739208365L165.13971581961943,-45.36262800332176z" style="fill:rgb(83,212,212)"/><path d="M176.61980252732067,-2.2208115710996106L163.4007981787607,-28.437242432967654L175.5044671169728,6.314872033962498z" style="fill:rgb(244,137,177)"/><path d="M-136.21302490628025,105.73690610446315L-108.03690918819076,140.33630321588186L-129.4251361732724,110.41052316361491z" style="fill:rgb(42,41,169)"/><path d="M-92.84163603090074,148.42367959579263L-122.02364015595187,114.61948079503634L-100.72203470534085,144.62304979022565z" style="fill:rgb(54,37,179)"/><path d="M-77.21675455788548,36.44965650568155L-129.4251361732724,110.41052316361491L-122.02364015595187,114.61948079503634z" style="fill:rgb(83,212,212)"/><path d="M164.64082373705847,-37.006108739208365L177.01646320766238,-10.560233463497658L165.13971581961943,-45.36262800332176z" style="fill:rgb(245,143,172)"/><path d="M153.5751355411068,-89.3319675806486L163.4007981787607,-28.437242432967654L164.64082373705847,-37.006108739208365zM151.57541950395762,-92.27262061358684L162.44405654750184,-24.23624686858897L163.4007981787607,-28.437242432967654zM-77.21675455788548,36.44965650568155L-122.02364015595187,114.61948079503634L-114.03029467104075,118.33326807297867z" style="fill:rgb(83,212,212)"/><path d="M175.5044671169728,6.314872033962498L161.4093281301317,-19.692793703176335L173.6605385683271,15.009970343533698z" style="fill:rgb(242,131,182)"/><path d="M-129.4251361732724,110.41052316361491L-100.72203470534085,144.62304979022565L-122.02364015595187,114.61948079503634z" style="fill:rgb(48,39,174)"/><path d="M-84.42211322095325,151.70959877293208L-114.03029467104075,118.33326807297867L-92.84163603090074,148.42367959579263z" style="fill:rgb(60,35,184)"/><path d="M163.4007981787607,-28.437242432967654L176.61980252732067,-2.2208115710996106L164.64082373705847,-37.006108739208365z" style="fill:rgb(244,137,177)"/><path d="M-77.21675455788548,36.44965650568155L-76.73117720617185,127.69346180503513L62.30435692865582,1.1207080957223434zM-77.21675455788548,36.44965650568155L-114.03029467104075,118.33326807297867L-105.47134992735508,121.52305338693803z" style="fill:rgb(83,212,212)"/><path d="M-63.05778156738492,157.12477951912712L-77.21675455788548,36.44965650568155L-83.68243671516673,126.67879905154075zM-13.412946209826433,25.73903507058857L-34.49555903847565,127.43914241708302L-15.082587928165399,158.54109354235334z" style="fill:rgb(247,158,158)"/><path d="M173.6605385683271,15.009970343533698L158.660283993858,-10.812096202249672L171.08206351213565,23.825214458004762z" style="fill:rgb(240,125,187)"/><path d="M-11.236759638547564,29.33967878785034L-31.9328174860461,127.14924261838581L-12.590351005295041,158.28792351205854z" style="fill:rgb(247,158,158)"/><path d="M-122.02364015595187,114.61948079503634L-92.84163603090074,148.42367959579263L-114.03029467104075,118.33326807297867z" style="fill:rgb(54,37,179)"/><path d="M-77.21675455788548,36.44965650568155L-105.47134992735508,121.52305338693803L-96.37755246224906,124.16207425089755z" style="fill:rgb(83,212,212)"/><path d="M161.4093281301317,-19.692793703176335L175.5044671169728,6.314872033962498L163.4007981787607,-28.437242432967654z" style="fill:rgb(242,131,182)"/><path d="M-7.712534674295872,32.04741064368734L-27.843251272510813,126.54542502067342L-8.61588069285548,157.74389702518442z" style="fill:rgb(247,158,158)"/><path d="M-96.37755246224906,124.16207425089755L-84.42211322095325,151.70959877293208L-75.49418255529343,154.45424255398282z" style="fill:rgb(66,34,189)"/><path d="M-77.21675455788548,36.44965650568155L-96.37755246224906,124.16207425089755L-86.78421853505716,126.22603500992798z" style="fill:rgb(83,212,212)"/><path d="M171.08206351213565,23.825214458004762L155.1520045849749,-1.8368784622365932L167.76741584257312,32.71911155055101z" style="fill:rgb(237,120,191)"/><path d="M2.379366658354113,34.05899683691554L-16.2457564754929,124.56558469547727L2.6490807973666364,155.93600599297858z" style="fill:rgb(247,158,158)"/><path d="M-114.03029467104075,118.33326807297867L-84.42211322095325,151.70959877293208L-105.47134992735508,121.52305338693803z" style="fill:rgb(60,35,184)"/><path d="M158.660283993858,-10.812096202249672L173.6605385683271,15.009970343533698L161.4093281301317,-19.692793703176335z" style="fill:rgb(240,125,187)"/><path d="M8.252480030868446,33.198243551870775L-9.511665405680336,123.21192736139379L9.18568777215081,154.68403994579694z" style="fill:rgb(247,158,158)"/><path d="M-86.78421853505716,126.22603500992798L-75.49418255529343,154.45424255398282L-66.09284788030683,156.63342077070888z" style="fill:rgb(73,33,193)"/><path d="M14.133420800540476,31.134253135601973L-2.752102480752087,121.49548732763054L15.740700761490729,153.07270584285664zM29.951747215652162,14.816962007722697L15.809624493283332,115.97760432109665L33.72527584683998,147.85079335378745z" style="fill:rgb(247,158,158)"/><path d="M-77.21675455788548,36.44965650568155L-86.78421853505716,126.22603500992798L-76.73117720617185,127.69346180503513z" style="fill:rgb(83,212,212)"/><path d="M27.795460520840255,19.548935963574195L13.180693639307085,116.87387877960084L31.180060474947798,148.70415102534298zM19.601117135636418,28.01166139100866L3.5651283850946958,119.82483160869538L21.86513745757594,151.5009727578505zM24.264752442193505,24.05474721208368L9.001811589362807,118.15634688181153L27.13197103297031,149.9195898246241zM118.8979828473889,51.20773044209335L125.73007450139117,22.434046145804267L112.0743126022052,-11.481830023717533z" style="fill:rgb(247,158,158)"/><path d="M-84.42211322095325,151.70959877293208L-96.37755246224906,124.16207425089755L-105.47134992735508,121.52305338693803z" style="fill:rgb(66,34,189)"/><path d="M167.76741584257312,32.71911155055101L150.8876050521669,7.188973822075077L163.71950778995463,41.64816536103735z" style="fill:rgb(234,114,195)"/><path d="M-3.4212093831622363,157.032847197925L-20.1078680541609,1.8089209328205451L-22.497602069059397,125.75615840090457z" style="fill:rgb(247,158,158)"/><path d="M-76.73117720617185,127.69346180503513L-66.09284788030683,156.63342077070888L-56.25737175291081,158.22570110559832z" style="fill:rgb(79,32,198)"/><path d="M155.1520045849749,-1.8368784622365932L171.08206351213565,23.825214458004762L158.660283993858,-10.812096202249672z" style="fill:rgb(237,120,191)"/><path d="M163.71950778995463,41.64816536103735L145.87521733815257,16.219695076352615L158.94610167317143,50.56717211216417z" style="fill:rgb(230,108,199)"/><path d="M162.44405654750184,-24.23624686858897L158.660283993858,-10.812096202249672L161.4093281301317,-19.692793703176335z" style="fill:rgb(83,212,212)"/><path d="M-75.49418255529343,154.45424255398282L-86.78421853505716,126.22603500992798L-96.37755246224906,124.16207425089755z" style="fill:rgb(73,33,193)"/><path d="M125.73007450139117,22.434046145804267L118.8979828473889,51.20773044209335L133.1241213869715,84.98028934935628z" style="fill:rgb(247,158,158)"/><path d="M-66.26262311982484,128.54607425805062L-56.25737175291081,158.22570110559832L-46.03111632811232,159.21271179591812z" style="fill:rgb(86,32,201)"/><path d="M150.8876050521669,7.188973822075077L167.76741584257312,32.71911155055101L155.1520045849749,-1.8368784622365932z" style="fill:rgb(234,114,195)"/><path d="M62.30435692865582,1.1207080957223434L71.08964008023565,89.73268040335978L112.0743126022052,-11.481830023717533zM162.44405654750184,-24.23624686858897L155.1520045849749,-1.8368784622365932L158.660283993858,-10.812096202249672z" style="fill:rgb(83,212,212)"/><path d="M158.94610167317143,50.56717211216417L140.12828124975763,25.207972694714254L153.4599223441066,59.429549907167385z" style="fill:rgb(226,102,203)"/><path d="M112.0743126022052,-11.481830023717533L126.51125484629455,42.86253609353882L162.44405654750184,-24.23624686858897z" style="fill:rgb(83,212,212)"/><path d="M-66.09284788030683,156.63342077070888L-76.73117720617185,127.69346180503513L-86.78421853505716,126.22603500992798z" style="fill:rgb(79,32,198)"/><path d="M62.30435692865582,1.1207080957223434L-76.73117720617185,127.69346180503513L-66.26262311982484,128.54607425805062z" style="fill:rgb(83,212,212)"/><path d="M-55.42697661561055,128.7691195530075L-46.03111632811232,159.21271179591812L-35.461378556742105,159.57958899611407z" style="fill:rgb(94,32,205)"/><path d="M162.44405654750184,-24.23624686858897L150.8876050521669,7.188973822075077L155.1520045849749,-1.8368784622365932z" style="fill:rgb(83,212,212)"/><path d="M145.87521733815257,16.219695076352615L163.71950778995463,41.64816536103735L150.8876050521669,7.188973822075077z" style="fill:rgb(230,108,199)"/><path d="M153.4599223441066,59.429549907167385L133.66553942624566,34.10532878693281L147.27885472075155,68.18770216194673z" style="fill:rgb(222,96,207)"/><path d="M62.30435692865582,1.1207080957223434L-66.26262311982484,128.54607425805062L-55.42697661561055,128.7691195530075z" style="fill:rgb(83,212,212)"/><path d="M-56.25737175291081,158.22570110559832L-66.26262311982484,128.54607425805062L-76.73117720617185,127.69346180503513z" style="fill:rgb(86,32,201)"/><path d="M-44.276574270108036,128.35175015593114L-35.461378556742105,159.57958899611407L-24.59912508527491,159.31514546208274z" style="fill:rgb(101,32,208)"/><path d="M162.44405654750184,-24.23624686858897L145.87521733815257,16.219695076352615L150.8876050521669,7.188973822075077zM62.30435692865582,1.1207080957223434L-55.42697661561055,128.7691195530075L-44.276574270108036,128.35175015593114z" style="fill:rgb(83,212,212)"/><path d="M147.27885472075155,68.18770216194673L126.51125484629455,42.86253609353882L140.42599156765812,76.79342797430981z" style="fill:rgb(217,91,210)"/><path d="M140.12828124975763,25.207972694714254L158.94610167317143,50.56717211216417L145.87521733815257,16.219695076352615z" style="fill:rgb(226,102,203)"/><path d="M162.44405654750184,-24.23624686858897L140.12828124975763,25.207972694714254L145.87521733815257,16.219695076352615z" style="fill:rgb(83,212,212)"/><path d="M-32.86735668466167,127.28722176096832L-24.59912508527491,159.31514546208274L-13.498637010142792,158.41224704934325z" style="fill:rgb(108,33,211)"/><path d="M62.30435692865582,1.1207080957223434L-44.276574270108036,128.35175015593114L-32.86735668466167,127.28722176096832z" style="fill:rgb(83,212,212)"/><path d="M-46.03111632811232,159.21271179591812L-55.42697661561055,128.7691195530075L-66.26262311982484,128.54607425805062z" style="fill:rgb(94,32,205)"/><path d="M140.42599156765812,76.79342797430981L118.69512752009254,51.430079776291265L132.92959766816688,85.19839077734552z" style="fill:rgb(212,85,213)"/><path d="M62.30435692865582,1.1207080957223434L-32.86735668466167,127.28722176096832L-21.25844609498457,125.57320586637691z" style="fill:rgb(83,212,212)"/><path d="M133.66553942624566,34.10532878693281L153.4599223441066,59.429549907167385L140.12828124975763,25.207972694714254z" style="fill:rgb(222,96,207)"/><path d="M162.44405654750184,-24.23624686858897L133.66553942624566,34.10532878693281L140.12828124975763,25.207972694714254z" style="fill:rgb(83,212,212)"/><path d="M-21.25844609498457,125.57320586637691L-13.498637010142792,158.41224704934325L-2.217137887168053,156.86803869782298z" style="fill:rgb(116,34,214)"/><path d="M62.30435692865582,1.1207080957223434L-21.25844609498457,125.57320586637691L-9.511665405680336,123.21192736139379z" style="fill:rgb(83,212,212)"/><path d="M132.92959766816688,85.19839077734552L110.25221418471259,59.75865042162902L124.82306109719777,93.35457055068656z" style="fill:rgb(206,80,215)"/><path d="M126.51125484629455,42.86253609353882L112.0743126022052,-11.481830023717533L118.69512752009254,51.430079776291265z" style="fill:rgb(83,212,212)"/><path d="M-35.461378556742105,159.57958899611407L-44.276574270108036,128.35175015593114L-55.42697661561055,128.7691195530075z" style="fill:rgb(101,32,208)"/><path d="M162.44405654750184,-24.23624686858897L126.51125484629455,42.86253609353882L133.66553942624566,34.10532878693281z" style="fill:rgb(83,212,212)"/><path d="M-9.511665405680336,123.21192736139379L-2.217137887168053,156.86803869782298L9.18568777215081,154.68403994579694z" style="fill:rgb(123,36,216)"/><path d="M62.30435692865582,1.1207080957223434L-9.511665405680336,123.21192736139379L2.3090090219264052,120.21032998068937z" style="fill:rgb(83,212,212)"/><path d="M126.51125484629455,42.86253609353882L147.27885472075155,68.18770216194673L133.66553942624566,34.10532878693281z" style="fill:rgb(217,91,210)"/><path d="M112.0743126022052,-11.481830023717533L110.25221418471259,59.75865042162902L118.69512752009254,51.430079776291265z" style="fill:rgb(83,212,212)"/><path d="M124.82306109719777,93.35457055068656L101.22276611547598,67.79964464979624L116.1447142048373,101.21472922135706z" style="fill:rgb(200,75,217)"/><path d="M62.30435692865582,1.1207080957223434L2.3090090219264052,120.21032998068937L14.138048099670153,116.58007181513607z" style="fill:rgb(83,212,212)"/><path d="M2.3090090219264052,120.21032998068937L9.18568777215081,154.68403994579694L20.64821048242793,151.8663517950131z" style="fill:rgb(131,38,218)"/><path d="M112.0743126022052,-11.481830023717533L101.22276611547598,67.79964464979624L110.25221418471259,59.75865042162902z" style="fill:rgb(83,212,212)"/><path d="M-24.59912508527491,159.31514546208274L-32.86735668466167,127.28722176096832L-44.276574270108036,128.35175015593114z" style="fill:rgb(108,33,211)"/><path d="M62.30435692865582,1.1207080957223434L14.138048099670153,116.58007181513607L25.909013252077354,112.3375792561945z" style="fill:rgb(83,212,212)"/><path d="M116.1447142048373,101.21472922135706L91.65196759542243,75.50568708107816L106.93762274510314,108.73298373755989z" style="fill:rgb(194,70,219)"/><path d="M62.30435692865582,1.1207080957223434L25.909013252077354,112.3375792561945L37.555224104140464,107.50392877336336zM62.30435692865582,1.1207080957223434L60.20968716696744,96.16965677823663L71.08964008023565,89.73268040335978zM62.30435692865582,1.1207080957223434L37.555224104140464,107.50392877336336L49.01047204381292,102.10467523850191zM62.30435692865582,1.1207080957223434L49.01047204381292,102.10467523850191L60.20968716696744,96.16965677823663zM112.0743126022052,-11.481830023717533L91.65196759542243,75.50568708107816L101.22276611547598,67.79964464979624z" style="fill:rgb(83,212,212)"/><path d="M14.138048099670153,116.58007181513607L20.64821048242793,151.8663517950131L32.10742287477665,148.42571663956164z" style="fill:rgb(138,40,220)"/><path d="M118.69512752009254,51.430079776291265L140.42599156765812,76.79342797430981L126.51125484629455,42.86253609353882z" style="fill:rgb(212,85,213)"/><path d="M91.65196759542243,75.50568708107816L97.24920770924639,115.86521093079354L106.93762274510314,108.73298373755989z" style="fill:rgb(188,65,220)"/><path d="M112.0743126022052,-11.481830023717533L81.58961106308593,82.83115378603048L91.65196759542243,75.50568708107816z" style="fill:rgb(83,212,212)"/><path d="M25.909013252077354,112.3375792561945L32.10742287477665,148.42571663956164L43.49955232139159,144.37742656399135z" style="fill:rgb(146,43,221)"/><path d="M81.58961106308593,82.83115378603048L87.13090109000568,122.56959790992632L97.24920770924639,115.86521093079354z" style="fill:rgb(181,61,221)"/><path d="M-13.498637010142792,158.41224704934325L-21.25844609498457,125.57320586637691L-32.86735668466167,127.28722176096832z" style="fill:rgb(116,34,214)"/><path d="M112.0743126022052,-11.481830023717533L71.08964008023565,89.73268040335978L81.58961106308593,82.83115378603048z" style="fill:rgb(83,212,212)"/><path d="M37.555224104140464,107.50392877336336L43.49955232139159,144.37742656399135L54.76069366962326,139.74137884854102z" style="fill:rgb(153,46,222)"/><path d="M71.08964008023565,89.73268040335978L76.63767125121022,128.80708293223668L87.13090109000568,122.56959790992632z" style="fill:rgb(175,57,222)"/><path d="M49.01047204381292,102.10467523850191L54.76069366962326,139.74137884854102L65.82746727184954,134.54178768621642z" style="fill:rgb(160,49,222)"/><path d="M60.20968716696744,96.16965677823663L65.82746727184954,134.54178768621642L76.63767125121022,128.80708293223668z" style="fill:rgb(168,53,222)"/><path d="M110.25221418471259,59.75865042162902L132.92959766816688,85.19839077734552L118.69512752009254,51.430079776291265z" style="fill:rgb(206,80,215)"/><path d="M-2.217137887168053,156.86803869782298L-9.511665405680336,123.21192736139379L-21.25844609498457,125.57320586637691z" style="fill:rgb(123,36,216)"/><path d="M101.22276611547598,67.79964464979624L124.82306109719777,93.35457055068656L110.25221418471259,59.75865042162902z" style="fill:rgb(200,75,217)"/><path d="M9.18568777215081,154.68403994579694L2.3090090219264052,120.21032998068937L-9.511665405680336,123.21192736139379z" style="fill:rgb(131,38,218)"/><path d="M91.65196759542243,75.50568708107816L116.1447142048373,101.21472922135706L101.22276611547598,67.79964464979624z" style="fill:rgb(194,70,219)"/><path d="M20.64821048242793,151.8663517950131L14.138048099670153,116.58007181513607L2.3090090219264052,120.21032998068937z" style="fill:rgb(138,40,220)"/><path d="M97.24920770924639,115.86521093079354L91.65196759542243,75.50568708107816L81.58961106308593,82.83115378603048z" style="fill:rgb(188,65,220)"/><path d="M32.10742287477665,148.42571663956164L25.909013252077354,112.3375792561945L14.138048099670153,116.58007181513607z" style="fill:rgb(146,43,221)"/><path d="M87.13090109000568,122.56959790992632L81.58961106308593,82.83115378603048L71.08964008023565,89.73268040335978z" style="fill:rgb(181,61,221)"/><path d="M43.49955232139159,144.37742656399135L37.555224104140464,107.50392877336336L25.909013252077354,112.3375792561945z" style="fill:rgb(153,46,222)"/><path d="M76.63767125121022,128.80708293223668L71.08964008023565,89.73268040335978L60.20968716696744,96.16965677823663z" style="fill:rgb(175,57,222)"/><path d="M54.76069366962326,139.74137884854102L49.01047204381292,102.10467523850191L37.555224104140464,107.50392877336336z" style="fill:rgb(160,49,222)"/><path d="M65.82746727184954,134.54178768621642L60.20968716696744,96.16965677823663L49.01047204381292,102.10467523850191z" style="fill:rgb(168,53,222)"/></svg>
